ISO-10303-21;
HEADER;
FILE_DESCRIPTION (( 'STEP AP214' ),
    '1' );
FILE_NAME ('GRM_Auto_Q3_3.2_1.6_1_0.46.STEP',
    '2024-08-04T18:18:22',
    ( '' ),
    ( '' ),
    'SwSTEP 2.0',
    'SolidWorks 2021',
    '' );
FILE_SCHEMA (( 'AUTOMOTIVE_DESIGN' ));
ENDSEC;

DATA;
#1 = CARTESIAN_POINT ( 'NONE',  ( 1.519999999999999796, 0.9200000000000000400, -0.7199999999999997513 ) ) ;
#2 = EDGE_LOOP ( 'NONE', ( #1161, #614, #611, #365 ) ) ;
#3 = AXIS2_PLACEMENT_3D ( 'NONE', #1, #398, #796 ) ;
#4 = AXIS2_PLACEMENT_3D ( 'NONE', #156, #759, #665 ) ;
#5 = LINE ( 'NONE', #426, #1169 ) ;
#6 = CIRCLE ( 'NONE', #650, 0.07999999999999998779 ) ;
#7 = ORIENTED_EDGE ( 'NONE', *, *, #187, .F. ) ;
#8 = LINE ( 'NONE', #209, #211 ) ;
#9 = ORIENTED_EDGE ( 'NONE', *, *, #698, .T. ) ;
#10 = DIRECTION ( 'NONE',  ( -1.000000000000000000, -0.000000000000000000, 8.673617379884037937E-17 ) ) ;
#11 = EDGE_CURVE ( 'NONE', #949, #97, #159, .T. ) ;
#12 = EDGE_LOOP ( 'NONE', ( #802, #734, #556, #993 ) ) ;
#13 = CARTESIAN_POINT ( 'NONE',  ( 1.519999999999999796, 0.000000000000000000, -0.7199999999999997513 ) ) ;
#14 = EDGE_CURVE ( 'NONE', #637, #100, #1050, .T. ) ;
#15 = EDGE_CURVE ( 'NONE', #532, #102, #370, .T. ) ;
#16 = ORIENTED_EDGE ( 'NONE', *, *, #741, .F. ) ;
#17 = SPHERICAL_SURFACE ( 'NONE', #262, 0.08000000000000000167 ) ;
#18 = UNCERTAINTY_MEASURE_WITH_UNIT (LENGTH_MEASURE( 1.000000000000000082E-05 ), #603, 'distance_accuracy_value', 'NONE');
#19 = ORIENTED_EDGE ( 'NONE', *, *, #110, .F. ) ;
#20 = LINE ( 'NONE', #529, #1065 ) ;
#21 = DIRECTION ( 'NONE',  ( 0.000000000000000000, -1.000000000000000000, 0.000000000000000000 ) ) ;
#22 = EDGE_LOOP ( 'NONE', ( #311, #914, #944, #1038 ) ) ;
#23 = AXIS2_PLACEMENT_3D ( 'NONE', #65, #845, #182 ) ;
#24 = CARTESIAN_POINT ( 'NONE',  ( -1.519999999999999796, 1.000000000000000000, 0.8000000000000001554 ) ) ;
#25 = VERTEX_POINT ( 'NONE', #181 ) ;
#26 = AXIS2_PLACEMENT_3D ( 'NONE', #568, #834, #651 ) ;
#27 = DIRECTION ( 'NONE',  ( 0.000000000000000000, 0.000000000000000000, 1.000000000000000000 ) ) ;
#28 = LINE ( 'NONE', #228, #686 ) ;
#29 = ORIENTED_EDGE ( 'NONE', *, *, #514, .T. ) ;
#30 = VERTEX_POINT ( 'NONE', #549 ) ;
#31 = DIRECTION ( 'NONE',  ( 8.673617379884037937E-17, -0.000000000000000000, 1.000000000000000000 ) ) ;
#32 = APPLICATION_PROTOCOL_DEFINITION ( 'draft international standard', 'automotive_design', 1998, #80 ) ;
#33 = CARTESIAN_POINT ( 'NONE',  ( 500000.0000000000582, 0.9200000000000000400, 0.7733333332899652302 ) ) ;
#34 = ORIENTED_EDGE ( 'NONE', *, *, #911, .T. ) ;
#35 = DIRECTION ( 'NONE',  ( -1.000000000000000000, 0.000000000000000000, 0.000000000000000000 ) ) ;
#36 = EDGE_LOOP ( 'NONE', ( #154, #128, #883, #560 ) ) ;
#37 = EDGE_CURVE ( 'NONE', #143, #1135, #272, .T. ) ;
#38 = CARTESIAN_POINT ( 'NONE',  ( -1.140000000000000124, 0.9200000000000000400, 0.7733333333333334281 ) ) ;
#39 = ORIENTED_EDGE ( 'NONE', *, *, #93, .F. ) ;
#40 = CARTESIAN_POINT ( 'NONE',  ( 1.140000000020791049, 0.9733333333333332726, -0.7199999999999999734 ) ) ;
#41 = ORIENTED_EDGE ( 'NONE', *, *, #1109, .T. ) ;
#42 = AXIS2_PLACEMENT_3D ( 'NONE', #959, #79, #178 ) ;
#43 = DIRECTION ( 'NONE',  ( 0.000000000000000000, 0.000000000000000000, 1.000000000000000000 ) ) ;
#44 = VECTOR ( 'NONE', #1247, 1000.000000000000000 ) ;
#45 = CARTESIAN_POINT ( 'NONE',  ( -1.599999999999999867, 0.07999999999999998779, 0.7200000000000001954 ) ) ;
#46 = VECTOR ( 'NONE', #1066, 1000.000000000000000 ) ;
#47 = VECTOR ( 'NONE', #825, 1000.000000000000000 ) ;
#48 = VERTEX_POINT ( 'NONE', #674 ) ;
#49 = DIRECTION ( 'NONE',  ( 0.000000000000000000, 0.000000000000000000, 1.000000000000000000 ) ) ;
#50 = ORIENTED_EDGE ( 'NONE', *, *, #701, .T. ) ;
#51 = MANIFOLD_SOLID_BREP ( 'Boss-Extrude2', #559 ) ;
#52 = ADVANCED_FACE ( 'NONE', ( #1139 ), #749, .T. ) ;
#53 = LINE ( 'NONE', #731, #941 ) ;
#54 = DIRECTION ( 'NONE',  ( 0.000000000000000000, 1.000000000000000000, 0.000000000000000000 ) ) ;
#55 = EDGE_CURVE ( 'NONE', #823, #506, #957, .T. ) ;
#56 = EDGE_CURVE ( 'NONE', #97, #215, #1153, .T. ) ;
#57 = FILL_AREA_STYLE ('',( #947 ) ) ;
#58 = EDGE_CURVE ( 'NONE', #621, #1131, #87, .T. ) ;
#59 = MANIFOLD_SOLID_BREP ( 'Mirror2', #1093 ) ;
#60 = CYLINDRICAL_SURFACE ( 'NONE', #826, 0.07999999999999998779 ) ;
#61 = ORIENTED_EDGE ( 'NONE', *, *, #875, .T. ) ;
#62 = DIRECTION ( 'NONE',  ( 0.000000000000000000, -1.000000000000000000, 0.000000000000000000 ) ) ;
#63 = CARTESIAN_POINT ( 'NONE',  ( -1.139999999999999902, 1.000000000000000000, 0.8000000000000001554 ) ) ;
#64 = CARTESIAN_POINT ( 'NONE',  ( 1.140000000000000346, 0.07999999999999998779, -0.7199999999999997513 ) ) ;
#65 = CARTESIAN_POINT ( 'NONE',  ( -1.519999999999999796, 0.9200000000000000400, 0.7200000000000001954 ) ) ;
#66 = ORIENTED_EDGE ( 'NONE', *, *, #110, .T. ) ;
#67 = DIRECTION ( 'NONE',  ( 1.000000000000000000, -0.000000000000000000, -0.000000000000000000 ) ) ;
#68 = AXIS2_PLACEMENT_3D ( 'NONE', #1120, #1216, #531 ) ;
#69 = LINE ( 'NONE', #462, #47 ) ;
#70 = AXIS2_PLACEMENT_3D ( 'NONE', #435, #206, #1209 ) ;
#71 = CARTESIAN_POINT ( 'NONE',  ( 1.139999999999999902, 1.000000000000000000, 0.8000000000000001554 ) ) ;
#72 = CIRCLE ( 'NONE', #26, 0.05333333333333329512 ) ;
#73 = LINE ( 'NONE', #840, #459 ) ;
#74 = VECTOR ( 'NONE', #923, 1000.000000000000000 ) ;
#75 = EDGE_CURVE ( 'NONE', #1135, #1189, #862, .T. ) ;
#76 = CARTESIAN_POINT ( 'NONE',  ( -1.519999999999999796, 1.000000000000000000, -0.7199999999999997513 ) ) ;
#77 = DIRECTION ( 'NONE',  ( -1.000000000000000000, 0.000000000000000000, 0.000000000000000000 ) ) ;
#78 =( LENGTH_UNIT ( ) NAMED_UNIT ( * ) SI_UNIT ( .MILLI., .METRE. ) );
#79 = DIRECTION ( 'NONE',  ( 0.000000000000000000, 0.000000000000000000, -1.000000000000000000 ) ) ;
#80 = APPLICATION_CONTEXT ( 'automotive_design' ) ;
#81 = CARTESIAN_POINT ( 'NONE',  ( 1.519999999999999796, 0.08000000000000000167, -0.7199999999999997513 ) ) ;
#82 = ORIENTED_EDGE ( 'NONE', *, *, #1183, .F. ) ;
#83 = CARTESIAN_POINT ( 'NONE',  ( -1.519999999999999796, 0.9200000000000000400, -0.7199999999999997513 ) ) ;
#84 = DIRECTION ( 'NONE',  ( 0.000000000000000000, 0.000000000000000000, 1.000000000000000000 ) ) ;
#85 =( NAMED_UNIT ( * ) SI_UNIT ( $, .STERADIAN. ) SOLID_ANGLE_UNIT ( ) );
#86 = AXIS2_PLACEMENT_3D ( 'NONE', #1098, #782, #1276 ) ;
#87 = LINE ( 'NONE', #1266, #623 ) ;
#88 = CARTESIAN_POINT ( 'NONE',  ( 0.000000000000000000, 0.000000000000000000, 0.7200000000000001954 ) ) ;
#89 = VERTEX_POINT ( 'NONE', #1011 ) ;
#90 = LINE ( 'NONE', #877, #770 ) ;
#91 = AXIS2_PLACEMENT_3D ( 'NONE', #710, #1190, #406 ) ;
#92 = DIRECTION ( 'NONE',  ( 0.000000000000000000, 0.000000000000000000, 1.000000000000000000 ) ) ;
#93 = EDGE_CURVE ( 'NONE', #331, #949, #208, .T. ) ;
#94 = ADVANCED_FACE ( 'NONE', ( #332 ), #1130, .T. ) ;
#95 = DIRECTION ( 'NONE',  ( 0.000000000000000000, -1.000000000000000000, -0.000000000000000000 ) ) ;
#96 = EDGE_CURVE ( 'NONE', #331, #361, #1027, .T. ) ;
#97 = VERTEX_POINT ( 'NONE', #144 ) ;
#98 = DIRECTION ( 'NONE',  ( 0.000000000000000000, 0.000000000000000000, -1.000000000000000000 ) ) ;
#99 = PLANE ( 'NONE',  #913 ) ;
#100 = VERTEX_POINT ( 'NONE', #1232 ) ;
#101 = DIRECTION ( 'NONE',  ( 0.000000000000000000, 0.000000000000000000, 1.000000000000000000 ) ) ;
#102 = VERTEX_POINT ( 'NONE', #224 ) ;
#103 = CARTESIAN_POINT ( 'NONE',  ( 1.519999999999999796, 0.9200000000000000400, -0.7199999999999997513 ) ) ;
#104 = LINE ( 'NONE', #1258, #586 ) ;
#105 = ORIENTED_EDGE ( 'NONE', *, *, #633, .T. ) ;
#106 = VECTOR ( 'NONE', #240, 1000.000000000000000 ) ;
#107 = ORIENTED_EDGE ( 'NONE', *, *, #15, .T. ) ;
#108 = CIRCLE ( 'NONE', #86, 0.05333333333333329512 ) ;
#109 = AXIS2_PLACEMENT_3D ( 'NONE', #1197, #1213, #329 ) ;
#110 = EDGE_CURVE ( 'NONE', #385, #48, #123, .T. ) ;
#111 = FACE_OUTER_BOUND ( 'NONE', #1192, .T. ) ;
#112 = AXIS2_PLACEMENT_3D ( 'NONE', #766, #283, #295 ) ;
#113 = VERTEX_POINT ( 'NONE', #1115 ) ;
#114 = EDGE_CURVE ( 'NONE', #113, #949, #415, .T. ) ;
#115 = PLANE ( 'NONE',  #109 ) ;
#116 =( GEOMETRIC_REPRESENTATION_CONTEXT ( 3 ) GLOBAL_UNCERTAINTY_ASSIGNED_CONTEXT ( ( #511 ) ) GLOBAL_UNIT_ASSIGNED_CONTEXT ( ( #142, #324, #713 ) ) REPRESENTATION_CONTEXT ( 'NONE', 'WORKASPACE' ) );
#117 = ORIENTED_EDGE ( 'NONE', *, *, #378, .F. ) ;
#118 = CARTESIAN_POINT ( 'NONE',  ( -1.599999999999999867, 0.07999999999999998779, -0.7199999999999997513 ) ) ;
#119 = EDGE_LOOP ( 'NONE', ( #117, #1119, #1277, #132 ) ) ;
#120 = CARTESIAN_POINT ( 'NONE',  ( 500000.0000000000582, 0.07999999999999998779, -0.7733333333767011819 ) ) ;
#121 = DIRECTION ( 'NONE',  ( 1.000000000000000000, 0.000000000000000000, 0.000000000000000000 ) ) ;
#122 = ORIENTED_EDGE ( 'NONE', *, *, #555, .F. ) ;
#123 = LINE ( 'NONE', #348, #376 ) ;
#124 = EDGE_LOOP ( 'NONE', ( #251, #1103, #34, #1217 ) ) ;
#125 = DIRECTION ( 'NONE',  ( 1.000000000000000000, 0.000000000000000000, -8.673617379884036705E-17 ) ) ;
#126 = SURFACE_STYLE_FILL_AREA ( #1016 ) ;
#127 = MECHANICAL_DESIGN_GEOMETRIC_PRESENTATION_REPRESENTATION (  '', ( #516 ), #207 ) ;
#128 = ORIENTED_EDGE ( 'NONE', *, *, #1203, .F. ) ;
#129 = VECTOR ( 'NONE', #161, 1000.000000000000000 ) ;
#130 = CYLINDRICAL_SURFACE ( 'NONE', #1202, 0.07999999999999998779 ) ;
#131 = AXIS2_PLACEMENT_3D ( 'NONE', #712, #125, #1117 ) ;
#132 = ORIENTED_EDGE ( 'NONE', *, *, #837, .T. ) ;
#133 = AXIS2_PLACEMENT_3D ( 'NONE', #856, #683, #84 ) ;
#134 = CARTESIAN_POINT ( 'NONE',  ( -1.599999999999999867, 1.000000000000000000, -0.7999999999999997113 ) ) ;
#135 = VECTOR ( 'NONE', #21, 1000.000000000000000 ) ;
#136 = DIRECTION ( 'NONE',  ( 0.000000000000000000, 0.000000000000000000, 1.000000000000000000 ) ) ;
#137 = ORIENTED_EDGE ( 'NONE', *, *, #1165, .F. ) ;
#138 = ADVANCED_FACE ( 'NONE', ( #924 ), #319, .T. ) ;
#139 =( NAMED_UNIT ( * ) PLANE_ANGLE_UNIT ( ) SI_UNIT ( $, .RADIAN. ) );
#140 = ORIENTED_EDGE ( 'NONE', *, *, #1165, .T. ) ;
#141 = CARTESIAN_POINT ( 'NONE',  ( 500000.0000000000582, 0.07999999999999998779, 0.7199999999566319975 ) ) ;
#142 =( LENGTH_UNIT ( ) NAMED_UNIT ( * ) SI_UNIT ( .MILLI., .METRE. ) );
#143 = VERTEX_POINT ( 'NONE', #40 ) ;
#144 = CARTESIAN_POINT ( 'NONE',  ( -1.599999999999999867, 0.9200000000000000400, 0.7200000000000001954 ) ) ;
#145 = VECTOR ( 'NONE', #165, 1000.000000000000000 ) ;
#146 = EDGE_LOOP ( 'NONE', ( #487, #822, #239, #1207 ) ) ;
#147 = PLANE ( 'NONE',  #278 ) ;
#148 = LINE ( 'NONE', #63, #420 ) ;
#149 = ORIENTED_EDGE ( 'NONE', *, *, #328, .F. ) ;
#150 = DIRECTION ( 'NONE',  ( -1.000000000000000000, 0.000000000000000000, 0.000000000000000000 ) ) ;
#151 = EDGE_CURVE ( 'NONE', #113, #331, #996, .T. ) ;
#152 = AXIS2_PLACEMENT_3D ( 'NONE', #942, #908, #49 ) ;
#153 = ADVANCED_FACE ( 'NONE', ( #735 ), #639, .T. ) ;
#154 = ORIENTED_EDGE ( 'NONE', *, *, #917, .F. ) ;
#155 = AXIS2_PLACEMENT_3D ( 'NONE', #613, #705, #428 ) ;
#156 = CARTESIAN_POINT ( 'NONE',  ( -1.519999999999999796, 0.9200000000000000400, 0.7200000000000001954 ) ) ;
#157 = DIRECTION ( 'NONE',  ( -1.000000000000000000, 0.000000000000000000, 0.000000000000000000 ) ) ;
#158 = AXIS2_PLACEMENT_3D ( 'NONE', #243, #54, #1152 ) ;
#159 = LINE ( 'NONE', #1056, #145 ) ;
#160 = PRODUCT_DEFINITION_FORMATION_WITH_SPECIFIED_SOURCE ( 'ANY', '', #582, .NOT_KNOWN. ) ;
#161 = DIRECTION ( 'NONE',  ( -1.000000000000000000, 0.000000000000000000, 0.000000000000000000 ) ) ;
#162 = ORIENTED_EDGE ( 'NONE', *, *, #1108, .F. ) ;
#163 = CARTESIAN_POINT ( 'NONE',  ( -1.519999999999999796, 0.9200000000000000400, -0.7999999999999997113 ) ) ;
#164 = DIRECTION ( 'NONE',  ( -1.000000000000000000, -0.000000000000000000, -0.000000000000000000 ) ) ;
#165 = DIRECTION ( 'NONE',  ( -0.000000000000000000, 1.000000000000000000, -0.000000000000000000 ) ) ;
#166 = CARTESIAN_POINT ( 'NONE',  ( -1.519999999999999796, 0.07999999999999998779, 0.8000000000000001554 ) ) ;
#167 = ORIENTED_EDGE ( 'NONE', *, *, #1240, .F. ) ;
#168 = DIRECTION ( 'NONE',  ( -2.710505431213761578E-16, -0.000000000000000000, -1.000000000000000000 ) ) ;
#169 = FACE_OUTER_BOUND ( 'NONE', #2, .T. ) ;
#170 = ORIENTED_EDGE ( 'NONE', *, *, #653, .F. ) ;
#171 = DIRECTION ( 'NONE',  ( 0.000000000000000000, 0.000000000000000000, 1.000000000000000000 ) ) ;
#172 = ORIENTED_EDGE ( 'NONE', *, *, #55, .T. ) ;
#173 = DIRECTION ( 'NONE',  ( 0.000000000000000000, -1.000000000000000000, -0.000000000000000000 ) ) ;
#174 = CIRCLE ( 'NONE', #704, 0.07999999999999998779 ) ;
#175 = CARTESIAN_POINT ( 'NONE',  ( -1.599999999999999867, 0.9200000000000000400, 0.8000000000000001554 ) ) ;
#176 = SURFACE_SIDE_STYLE ('',( #1062 ) ) ;
#177 = AXIS2_PLACEMENT_3D ( 'NONE', #859, #991, #320 ) ;
#178 = DIRECTION ( 'NONE',  ( 1.000000000000000000, 0.000000000000000000, 0.000000000000000000 ) ) ;
#179 = ADVANCED_FACE ( 'NONE', ( #248 ), #543, .T. ) ;
#180 = CARTESIAN_POINT ( 'NONE',  ( 1.139999999999999902, 0.9200000000000000400, 0.7200000000000001954 ) ) ;
#181 = CARTESIAN_POINT ( 'NONE',  ( -1.139999999999999902, 0.000000000000000000, 0.7199999999999997513 ) ) ;
#182 = DIRECTION ( 'NONE',  ( 1.000000000000000000, 0.000000000000000000, 0.000000000000000000 ) ) ;
#183 = CARTESIAN_POINT ( 'NONE',  ( -1.599999999999999867, 0.9200000000000000400, -0.7999999999999997113 ) ) ;
#184 = DIRECTION ( 'NONE',  ( 1.000000000000000000, 0.000000000000000000, 0.000000000000000000 ) ) ;
#185 = DIRECTION ( 'NONE',  ( -0.000000000000000000, 1.000000000000000000, -0.000000000000000000 ) ) ;
#186 = VECTOR ( 'NONE', #969, 1000.000000000000000 ) ;
#187 = EDGE_CURVE ( 'NONE', #30, #385, #1205, .T. ) ;
#188 = ADVANCED_FACE ( 'NONE', ( #1019 ), #130, .T. ) ;
#189 = CARTESIAN_POINT ( 'NONE',  ( 1.140000000000000346, 1.000000000000000000, -0.7999999999999997113 ) ) ;
#190 = ORIENTED_EDGE ( 'NONE', *, *, #647, .F. ) ;
#191 = VECTOR ( 'NONE', #590, 1000.000000000000000 ) ;
#192 = CARTESIAN_POINT ( 'NONE',  ( 1.599999999999999867, 0.07999999999999998779, -0.7999999999999997113 ) ) ;
#193 = PLANE ( 'NONE',  #321 ) ;
#194 = EDGE_LOOP ( 'NONE', ( #541, #201, #716, #190 ) ) ;
#195 = CARTESIAN_POINT ( 'NONE',  ( 0.000000000000000000, 1.000000000000000000, 0.000000000000000000 ) ) ;
#196 = ORIENTED_EDGE ( 'NONE', *, *, #743, .F. ) ;
#197 = FACE_OUTER_BOUND ( 'NONE', #1036, .T. ) ;
#198 = DIRECTION ( 'NONE',  ( 0.000000000000000000, 1.000000000000000000, 0.000000000000000000 ) ) ;
#199 = ADVANCED_FACE ( 'NONE', ( #465 ), #742, .T. ) ;
#200 = CARTESIAN_POINT ( 'NONE',  ( 1.599999999999999867, 0.9200000000000000400, 0.7200000000000001954 ) ) ;
#201 = ORIENTED_EDGE ( 'NONE', *, *, #653, .T. ) ;
#202 = ADVANCED_FACE ( 'NONE', ( #255 ), #1252, .F. ) ;
#203 = DIRECTION ( 'NONE',  ( 0.000000000000000000, -1.000000000000000000, 0.000000000000000000 ) ) ;
#204 = FILL_AREA_STYLE_COLOUR ( '', #962 ) ;
#205 = ORIENTED_EDGE ( 'NONE', *, *, #15, .F. ) ;
#206 = DIRECTION ( 'NONE',  ( 0.000000000000000000, 1.000000000000000000, 0.000000000000000000 ) ) ;
#207 =( GEOMETRIC_REPRESENTATION_CONTEXT ( 3 ) GLOBAL_UNCERTAINTY_ASSIGNED_CONTEXT ( ( #214 ) ) GLOBAL_UNIT_ASSIGNED_CONTEXT ( ( #78, #968, #474 ) ) REPRESENTATION_CONTEXT ( 'NONE', 'WORKASPACE' ) );
#208 = CIRCLE ( 'NONE', #68, 0.07999999999999998779 ) ;
#209 = CARTESIAN_POINT ( 'NONE',  ( 0.000000000000000000, 0.000000000000000000, 0.7200000000000001954 ) ) ;
#210 = ORIENTED_EDGE ( 'NONE', *, *, #743, .T. ) ;
#211 = VECTOR ( 'NONE', #1172, 1000.000000000000000 ) ;
#212 = CARTESIAN_POINT ( 'NONE',  ( 0.000000000000000000, 0.000000000000000000, -0.7199999999999997513 ) ) ;
#213 = PRESENTATION_LAYER_ASSIGNMENT (  '', '', ( #1081 ) ) ;
#214 = UNCERTAINTY_MEASURE_WITH_UNIT (LENGTH_MEASURE( 1.000000000000000082E-05 ), #78, 'distance_accuracy_value', 'NONE');
#215 = VERTEX_POINT ( 'NONE', #264 ) ;
#216 = CARTESIAN_POINT ( 'NONE',  ( -1.599999999999999867, 0.07999999999999998779, -0.7199999999999997513 ) ) ;
#217 = AXIS2_PLACEMENT_3D ( 'NONE', #1219, #1214, #801 ) ;
#218 = DIRECTION ( 'NONE',  ( -1.000000000000000000, 0.000000000000000000, 0.000000000000000000 ) ) ;
#219 = ORIENTED_EDGE ( 'NONE', *, *, #75, .T. ) ;
#220 = DIRECTION ( 'NONE',  ( 0.000000000000000000, -1.000000000000000000, 0.000000000000000000 ) ) ;
#221 = EDGE_LOOP ( 'NONE', ( #903, #41, #1246 ) ) ;
#222 = CARTESIAN_POINT ( 'NONE',  ( -1.140000000000000346, 1.000000000000000000, -0.7999999999999997113 ) ) ;
#223 = VERTEX_POINT ( 'NONE', #645 ) ;
#224 = CARTESIAN_POINT ( 'NONE',  ( 1.519999999999999796, 1.000000000000000000, 0.7200000000000001954 ) ) ;
#225 = EDGE_CURVE ( 'NONE', #97, #385, #804, .T. ) ;
#226 = VERTEX_POINT ( 'NONE', #1069 ) ;
#227 = DIRECTION ( 'NONE',  ( -1.000000000000000000, -0.000000000000000000, 8.673617379884037937E-17 ) ) ;
#228 = CARTESIAN_POINT ( 'NONE',  ( 1.139999999999999902, 1.000000000000000000, 0.7200000000000001954 ) ) ;
#229 = EDGE_CURVE ( 'NONE', #730, #745, #657, .T. ) ;
#230 = STYLED_ITEM ( 'NONE', ( #771 ), #59 ) ;
#231 = ORIENTED_EDGE ( 'NONE', *, *, #1015, .F. ) ;
#232 = CARTESIAN_POINT ( 'NONE',  ( 1.519999999999999796, 0.9200000000000000400, 0.7200000000000001954 ) ) ;
#233 = VECTOR ( 'NONE', #1236, 1000.000000000000000 ) ;
#234 = ORIENTED_EDGE ( 'NONE', *, *, #1031, .F. ) ;
#235 = AXIS2_PLACEMENT_3D ( 'NONE', #1133, #164, #755 ) ;
#236 = CARTESIAN_POINT ( 'NONE',  ( 500000.0000000000582, 0.9199999999999998179, -0.7733333333767011819 ) ) ;
#237 = AXIS2_PLACEMENT_3D ( 'NONE', #343, #946, #1061 ) ;
#238 = DIRECTION ( 'NONE',  ( -1.000000000000000000, 0.000000000000000000, 8.673617379884037937E-17 ) ) ;
#239 = ORIENTED_EDGE ( 'NONE', *, *, #1015, .T. ) ;
#240 = DIRECTION ( 'NONE',  ( 1.000000000000000000, -0.000000000000000000, 0.000000000000000000 ) ) ;
#241 = ORIENTED_EDGE ( 'NONE', *, *, #414, .T. ) ;
#242 = DIRECTION ( 'NONE',  ( 1.000000000000000000, 0.000000000000000000, 2.710505431213761578E-16 ) ) ;
#243 = CARTESIAN_POINT ( 'NONE',  ( -1.519999999999999796, 0.07999999999999998779, -0.7199999999999997513 ) ) ;
#244 = DIRECTION ( 'NONE',  ( -1.000000000000000000, -0.000000000000000000, -0.000000000000000000 ) ) ;
#245 = ADVANCED_FACE ( 'NONE', ( #456 ), #1051, .T. ) ;
#246 = EDGE_LOOP ( 'NONE', ( #640, #758, #849, #234 ) ) ;
#247 = EDGE_CURVE ( 'NONE', #113, #619, #757, .T. ) ;
#248 = FACE_OUTER_BOUND ( 'NONE', #1010, .T. ) ;
#249 = VECTOR ( 'NONE', #854, 1000.000000000000000 ) ;
#250 = EDGE_CURVE ( 'NONE', #215, #1084, #1154, .T. ) ;
#251 = ORIENTED_EDGE ( 'NONE', *, *, #819, .F. ) ;
#252 = CARTESIAN_POINT ( 'NONE',  ( 500000.0000000000582, 0.02666666666666666491, -0.7200000000433675051 ) ) ;
#253 = DIRECTION ( 'NONE',  ( -1.000000000000000000, -0.000000000000000000, -0.000000000000000000 ) ) ;
#254 = ORIENTED_EDGE ( 'NONE', *, *, #1204, .T. ) ;
#255 = FACE_OUTER_BOUND ( 'NONE', #1042, .T. ) ;
#256 = VECTOR ( 'NONE', #227, 1000.000000000000000 ) ;
#257 = ORIENTED_EDGE ( 'NONE', *, *, #794, .T. ) ;
#258 = CIRCLE ( 'NONE', #828, 0.07999999999999998779 ) ;
#259 = DIRECTION ( 'NONE',  ( -0.000000000000000000, 1.000000000000000000, 0.000000000000000000 ) ) ;
#260 = CIRCLE ( 'NONE', #298, 0.07999999999999998779 ) ;
#261 = DIRECTION ( 'NONE',  ( 0.000000000000000000, 0.000000000000000000, 1.000000000000000000 ) ) ;
#262 = AXIS2_PLACEMENT_3D ( 'NONE', #494, #468, #1101 ) ;
#263 = ORIENTED_EDGE ( 'NONE', *, *, #775, .T. ) ;
#264 = CARTESIAN_POINT ( 'NONE',  ( -1.599999999999999867, 0.9200000000000000400, -0.7199999999999997513 ) ) ;
#265 = EDGE_LOOP ( 'NONE', ( #167, #832, #299 ) ) ;
#266 = DIRECTION ( 'NONE',  ( 0.000000000000000000, 0.000000000000000000, -1.000000000000000000 ) ) ;
#267 = LINE ( 'NONE', #569, #463 ) ;
#268 = DIRECTION ( 'NONE',  ( 0.000000000000000000, -1.000000000000000000, 0.000000000000000000 ) ) ;
#269 = ORIENTED_EDGE ( 'NONE', *, *, #58, .F. ) ;
#270 = CARTESIAN_POINT ( 'NONE',  ( 1.599999999999999867, 1.000000000000000000, 0.8000000000000001554 ) ) ;
#271 = DIRECTION ( 'NONE',  ( 1.000000000000000000, 0.000000000000000000, 0.000000000000000000 ) ) ;
#272 = LINE ( 'NONE', #279, #535 ) ;
#273 = ADVANCED_FACE ( 'NONE', ( #1263 ), #1045, .T. ) ;
#274 = CARTESIAN_POINT ( 'NONE',  ( 1.140000000000000346, 0.9200000000000000400, -0.7999999999999997113 ) ) ;
#275 = LINE ( 'NONE', #672, #46 ) ;
#276 = AXIS2_PLACEMENT_3D ( 'NONE', #195, #680, #600 ) ;
#277 = SURFACE_STYLE_USAGE ( .BOTH. , #661 ) ;
#278 = AXIS2_PLACEMENT_3D ( 'NONE', #1035, #43, #1224 ) ;
#279 = CARTESIAN_POINT ( 'NONE',  ( 1.140000000020791049, 0.9733333333333332726, -0.7200000001788928738 ) ) ;
#280 = CIRCLE ( 'NONE', #707, 0.07999999999999998779 ) ;
#281 = CARTESIAN_POINT ( 'NONE',  ( -1.519999999999999796, 0.07999999999999998779, -0.7999999999999997113 ) ) ;
#282 = COLOUR_RGB ( '',0.7921568627450980005, 0.8196078431372548767, 0.9333333333333333481 ) ;
#283 = DIRECTION ( 'NONE',  ( -1.000000000000000000, -0.000000000000000000, -0.000000000000000000 ) ) ;
#284 = SURFACE_STYLE_FILL_AREA ( #579 ) ;
#285 = EDGE_CURVE ( 'NONE', #844, #30, #663, .T. ) ;
#286 = LINE ( 'NONE', #879, #1122 ) ;
#287 = EDGE_CURVE ( 'NONE', #30, #692, #865, .T. ) ;
#288 = ADVANCED_FACE ( 'NONE', ( #564 ), #948, .T. ) ;
#289 = EDGE_CURVE ( 'NONE', #649, #331, #73, .T. ) ;
#290 = DIRECTION ( 'NONE',  ( -1.000000000000000000, 0.000000000000000000, 0.000000000000000000 ) ) ;
#291 = EDGE_LOOP ( 'NONE', ( #373, #508, #1099, #107 ) ) ;
#292 = CARTESIAN_POINT ( 'NONE',  ( -1.519999999999999796, 0.9200000000000000400, 0.7200000000000001954 ) ) ;
#293 = EDGE_LOOP ( 'NONE', ( #756, #219, #1116, #1136 ) ) ;
#294 = DIRECTION ( 'NONE',  ( -1.000000000000000000, -0.000000000000000000, -0.000000000000000000 ) ) ;
#295 = DIRECTION ( 'NONE',  ( 0.000000000000000000, 0.000000000000000000, 1.000000000000000000 ) ) ;
#296 = VECTOR ( 'NONE', #860, 1000.000000000000000 ) ;
#297 = DIRECTION ( 'NONE',  ( 0.000000000000000000, 0.000000000000000000, -1.000000000000000000 ) ) ;
#298 = AXIS2_PLACEMENT_3D ( 'NONE', #561, #955, #92 ) ;
#299 = ORIENTED_EDGE ( 'NONE', *, *, #868, .F. ) ;
#300 = AXIS2_PLACEMENT_3D ( 'NONE', #436, #548, #562 ) ;
#301 = AXIS2_PLACEMENT_3D ( 'NONE', #330, #430, #1009 ) ;
#302 = CARTESIAN_POINT ( 'NONE',  ( -1.599999999999999867, 1.000000000000000000, 0.8000000000000001554 ) ) ;
#303 = EDGE_CURVE ( 'NONE', #48, #844, #573, .T. ) ;
#304 = DIRECTION ( 'NONE',  ( 1.000000000000000000, 0.000000000000000000, 2.710505431213761578E-16 ) ) ;
#305 = VERTEX_POINT ( 'NONE', #281 ) ;
#306 = DIRECTION ( 'NONE',  ( 0.000000000000000000, 0.000000000000000000, 1.000000000000000000 ) ) ;
#307 = SURFACE_STYLE_USAGE ( .BOTH. , #1191 ) ;
#308 = EDGE_LOOP ( 'NONE', ( #736, #7, #340, #410 ) ) ;
#309 = CYLINDRICAL_SURFACE ( 'NONE', #500, 0.05333333333333329512 ) ;
#310 = CARTESIAN_POINT ( 'NONE',  ( -1.519999999999999796, 0.9200000000000000400, -0.7199999999999997513 ) ) ;
#311 = ORIENTED_EDGE ( 'NONE', *, *, #56, .T. ) ;
#312 = LINE ( 'NONE', #581, #504 ) ;
#313 = CARTESIAN_POINT ( 'NONE',  ( 1.140000000020791049, 0.9733333333333332726, 0.7199999999999990852 ) ) ;
#314 = ORIENTED_EDGE ( 'NONE', *, *, #1112, .T. ) ;
#315 = CARTESIAN_POINT ( 'NONE',  ( -1.519999999999999796, 0.9200000000000000400, 0.8000000000000001554 ) ) ;
#316 = DIRECTION ( 'NONE',  ( 1.000000000000000000, 0.000000000000000000, 0.000000000000000000 ) ) ;
#317 = ORIENTED_EDGE ( 'NONE', *, *, #229, .F. ) ;
#318 = VECTOR ( 'NONE', #722, 1000.000000000000000 ) ;
#319 = CYLINDRICAL_SURFACE ( 'NONE', #583, 0.05333333333333329512 ) ;
#320 = DIRECTION ( 'NONE',  ( -1.000000000000000000, 0.000000000000000000, 0.000000000000000000 ) ) ;
#321 = AXIS2_PLACEMENT_3D ( 'NONE', #1274, #1178, #577 ) ;
#322 = EDGE_LOOP ( 'NONE', ( #257, #502, #1013, #818, #694, #1047, #954, #989 ) ) ;
#323 = DIRECTION ( 'NONE',  ( 0.000000000000000000, 0.000000000000000000, 1.000000000000000000 ) ) ;
#324 =( NAMED_UNIT ( * ) PLANE_ANGLE_UNIT ( ) SI_UNIT ( $, .RADIAN. ) );
#325 = ORIENTED_EDGE ( 'NONE', *, *, #887, .T. ) ;
#326 = DIRECTION ( 'NONE',  ( 0.000000000000000000, 0.000000000000000000, 1.000000000000000000 ) ) ;
#327 = ORIENTED_EDGE ( 'NONE', *, *, #1068, .F. ) ;
#328 = EDGE_CURVE ( 'NONE', #512, #909, #550, .T. ) ;
#329 = DIRECTION ( 'NONE',  ( 0.000000000000000000, 0.000000000000000000, 1.000000000000000000 ) ) ;
#330 = CARTESIAN_POINT ( 'NONE',  ( 500000.0000000000582, 0.07999999999999998779, -0.7200000000433679492 ) ) ;
#331 = VERTEX_POINT ( 'NONE', #166 ) ;
#332 = FACE_OUTER_BOUND ( 'NONE', #265, .T. ) ;
#333 = ORIENTED_EDGE ( 'NONE', *, *, #1240, .T. ) ;
#334 = DIRECTION ( 'NONE',  ( -1.000000000000000000, -0.000000000000000000, 8.673617379884037937E-17 ) ) ;
#335 = LINE ( 'NONE', #912, #135 ) ;
#336 = VERTEX_POINT ( 'NONE', #353 ) ;
#337 = DIRECTION ( 'NONE',  ( -0.000000000000000000, -0.000000000000000000, -1.000000000000000000 ) ) ;
#338 = AXIS2_PLACEMENT_3D ( 'NONE', #975, #776, #789 ) ;
#339 = VECTOR ( 'NONE', #1234, 1000.000000000000000 ) ;
#340 = ORIENTED_EDGE ( 'NONE', *, *, #433, .F. ) ;
#341 = LINE ( 'NONE', #1149, #44 ) ;
#342 = VECTOR ( 'NONE', #10, 1000.000000000000000 ) ;
#343 = CARTESIAN_POINT ( 'NONE',  ( 1.140000000020791049, 0.07999999999999998779, 0.7199999999999999734 ) ) ;
#344 = ADVANCED_FACE ( 'NONE', ( #750 ), #60, .T. ) ;
#345 = DIRECTION ( 'NONE',  ( 0.000000000000000000, 0.000000000000000000, -1.000000000000000000 ) ) ;
#346 = ORIENTED_EDGE ( 'NONE', *, *, #151, .T. ) ;
#347 = ADVANCED_FACE ( 'NONE', ( #1175 ), #885, .T. ) ;
#348 = CARTESIAN_POINT ( 'NONE',  ( -1.139999999999999902, 1.000000000000000000, 0.7200000000000001954 ) ) ;
#349 = CARTESIAN_POINT ( 'NONE',  ( -1.140000000000000124, 0.9733333333333332726, 0.7199999999999993072 ) ) ;
#350 = ORIENTED_EDGE ( 'NONE', *, *, #515, .F. ) ;
#351 = FACE_OUTER_BOUND ( 'NONE', #460, .T. ) ;
#352 = LINE ( 'NONE', #1227, #1025 ) ;
#353 = CARTESIAN_POINT ( 'NONE',  ( -1.140000000000000124, 0.9733333333333332726, -0.7199999999999997513 ) ) ;
#354 = COLOUR_RGB ( '',0.4862745098039215619, 0.2352941176470588203, 0.01568627450980392135 ) ;
#355 = EDGE_LOOP ( 'NONE', ( #241, #50, #451 ) ) ;
#356 = CARTESIAN_POINT ( 'NONE',  ( 1.519999999999999796, 0.9200000000000000400, -0.7999999999999997113 ) ) ;
#357 = FACE_OUTER_BOUND ( 'NONE', #1201, .T. ) ;
#358 = PRODUCT_DEFINITION_CONTEXT ( 'detailed design', #80, 'design' ) ;
#359 = CARTESIAN_POINT ( 'NONE',  ( 1.599999999999999867, 0.07999999999999998779, -0.7199999999999997513 ) ) ;
#360 = AXIS2_PLACEMENT_3D ( 'NONE', #470, #764, #953 ) ;
#361 = VERTEX_POINT ( 'NONE', #1181 ) ;
#362 = CARTESIAN_POINT ( 'NONE',  ( 1.140000000020791049, 0.9200000000000000400, 0.7199999999999999734 ) ) ;
#363 = ORIENTED_EDGE ( 'NONE', *, *, #433, .T. ) ;
#364 = DIRECTION ( 'NONE',  ( -1.000000000000000000, 0.000000000000000000, 0.000000000000000000 ) ) ;
#365 = ORIENTED_EDGE ( 'NONE', *, *, #247, .F. ) ;
#366 = CARTESIAN_POINT ( 'NONE',  ( -1.140000000000000346, 0.9200000000000000400, -0.7999999999999997113 ) ) ;
#367 = PRODUCT_DEFINITION ( 'UNKNOWN', '', #160, #358 ) ;
#368 = EDGE_CURVE ( 'NONE', #143, #336, #286, .T. ) ;
#369 = CARTESIAN_POINT ( 'NONE',  ( 1.519999999999999796, 0.07999999999999998779, -0.7199999999999997513 ) ) ;
#370 = LINE ( 'NONE', #1241, #902 ) ;
#371 = DIRECTION ( 'NONE',  ( 0.000000000000000000, 0.000000000000000000, 1.000000000000000000 ) ) ;
#372 = DIRECTION ( 'NONE',  ( 0.000000000000000000, 0.000000000000000000, 1.000000000000000000 ) ) ;
#373 = ORIENTED_EDGE ( 'NONE', *, *, #1070, .F. ) ;
#374 = DIRECTION ( 'NONE',  ( -2.710505431213761578E-16, -0.000000000000000000, -1.000000000000000000 ) ) ;
#375 = CARTESIAN_POINT ( 'NONE',  ( 1.140000000000000346, 0.000000000000000000, -0.7199999999999997513 ) ) ;
#376 = VECTOR ( 'NONE', #536, 1000.000000000000000 ) ;
#377 = CIRCLE ( 'NONE', #542, 0.05333333333333329512 ) ;
#378 = EDGE_CURVE ( 'NONE', #89, #730, #565, .T. ) ;
#379 = EDGE_CURVE ( 'NONE', #899, #305, #1077, .T. ) ;
#380 = SURFACE_STYLE_USAGE ( .BOTH. , #974 ) ;
#381 = CIRCLE ( 'NONE', #158, 0.07999999999999998779 ) ;
#382 = DIRECTION ( 'NONE',  ( 0.000000000000000000, 0.000000000000000000, -1.000000000000000000 ) ) ;
#383 = FACE_OUTER_BOUND ( 'NONE', #1052, .T. ) ;
#384 = CARTESIAN_POINT ( 'NONE',  ( 1.519999999999999796, 0.9200000000000000400, 0.8000000000000001554 ) ) ;
#385 = VERTEX_POINT ( 'NONE', #486 ) ;
#386 = LINE ( 'NONE', #638, #74 ) ;
#387 = DIRECTION ( 'NONE',  ( 1.000000000000000000, -0.000000000000000000, -2.710505431213761578E-16 ) ) ;
#388 = DIRECTION ( 'NONE',  ( -1.000000000000000000, 0.000000000000000000, 0.000000000000000000 ) ) ;
#389 = EDGE_LOOP ( 'NONE', ( #838, #976, #327, #783 ) ) ;
#390 = DIRECTION ( 'NONE',  ( -1.000000000000000000, 0.000000000000000000, 0.000000000000000000 ) ) ;
#391 = EDGE_LOOP ( 'NONE', ( #605, #524, #333, #1231 ) ) ;
#392 = DIRECTION ( 'NONE',  ( 1.000000000000000000, 0.000000000000000000, 0.000000000000000000 ) ) ;
#393 = CARTESIAN_POINT ( 'NONE',  ( 1.519999999999999796, 1.000000000000000000, -0.7199999999999997513 ) ) ;
#394 = PRESENTATION_LAYER_ASSIGNMENT (  '', '', ( #230 ) ) ;
#395 = ORIENTED_EDGE ( 'NONE', *, *, #1262, .F. ) ;
#396 = FACE_OUTER_BOUND ( 'NONE', #36, .T. ) ;
#397 = CIRCLE ( 'NONE', #1124, 0.05333333333333329512 ) ;
#398 = DIRECTION ( 'NONE',  ( 0.000000000000000000, 1.000000000000000000, 0.000000000000000000 ) ) ;
#399 = ORIENTED_EDGE ( 'NONE', *, *, #418, .F. ) ;
#400 = AXIS2_PLACEMENT_3D ( 'NONE', #821, #815, #121 ) ;
#401 = FACE_OUTER_BOUND ( 'NONE', #995, .T. ) ;
#402 = ORIENTED_EDGE ( 'NONE', *, *, #1183, .T. ) ;
#403 = EDGE_CURVE ( 'NONE', #100, #940, #999, .T. ) ;
#404 = DIRECTION ( 'NONE',  ( 0.000000000000000000, 1.000000000000000000, -0.000000000000000000 ) ) ;
#405 = ORIENTED_EDGE ( 'NONE', *, *, #75, .F. ) ;
#406 = DIRECTION ( 'NONE',  ( -1.000000000000000000, 0.000000000000000000, 0.000000000000000000 ) ) ;
#407 = EDGE_LOOP ( 'NONE', ( #521, #1176, #1223, #170 ) ) ;
#408 = PLANE ( 'NONE',  #70 ) ;
#409 = FILL_AREA_STYLE_COLOUR ( '', #282 ) ;
#410 = ORIENTED_EDGE ( 'NONE', *, *, #56, .F. ) ;
#411 = DIRECTION ( 'NONE',  ( -1.000000000000000000, 0.000000000000000000, -0.000000000000000000 ) ) ;
#412 = ORIENTED_EDGE ( 'NONE', *, *, #403, .F. ) ;
#413 = CARTESIAN_POINT ( 'NONE',  ( -1.519999999999999796, 0.000000000000000000, -0.7199999999999997513 ) ) ;
#414 = EDGE_CURVE ( 'NONE', #97, #649, #174, .T. ) ;
#415 = CIRCLE ( 'NONE', #498, 0.07999999999999998779 ) ;
#416 = EDGE_CURVE ( 'NONE', #25, #113, #588, .T. ) ;
#417 = ORIENTED_EDGE ( 'NONE', *, *, #890, .F. ) ;
#418 = EDGE_CURVE ( 'NONE', #909, #530, #108, .T. ) ;
#419 = EDGE_CURVE ( 'NONE', #1189, #519, #1063, .T. ) ;
#420 = VECTOR ( 'NONE', #453, 1000.000000000000000 ) ;
#421 = CARTESIAN_POINT ( 'NONE',  ( 500000.0000000000582, 0.9733333333333332726, 0.7199999999566311093 ) ) ;
#422 = ORIENTED_EDGE ( 'NONE', *, *, #1262, .T. ) ;
#423 = LINE ( 'NONE', #236, #439 ) ;
#424 = ORIENTED_EDGE ( 'NONE', *, *, #473, .T. ) ;
#425 =( NAMED_UNIT ( * ) SI_UNIT ( $, .STERADIAN. ) SOLID_ANGLE_UNIT ( ) );
#426 = CARTESIAN_POINT ( 'NONE',  ( -1.140000000000000124, 0.07999999999999998779, -0.7733333333333329840 ) ) ;
#427 = VERTEX_POINT ( 'NONE', #384 ) ;
#428 = DIRECTION ( 'NONE',  ( 0.000000000000000000, 0.000000000000000000, 1.000000000000000000 ) ) ;
#429 = SHAPE_DEFINITION_REPRESENTATION ( #1087, #774 ) ;
#430 = DIRECTION ( 'NONE',  ( -1.000000000000000000, -0.000000000000000000, 8.673617379884037937E-17 ) ) ;
#431 = ORIENTED_EDGE ( 'NONE', *, *, #495, .F. ) ;
#432 = CARTESIAN_POINT ( 'NONE',  ( 500000.0000000000582, 0.9200000000000000400, -0.7200000000433679492 ) ) ;
#433 = EDGE_CURVE ( 'NONE', #215, #30, #670, .T. ) ;
#434 = ORIENTED_EDGE ( 'NONE', *, *, #55, .F. ) ;
#435 = CARTESIAN_POINT ( 'NONE',  ( 500000.0000000000582, 0.02666666666666666491, 0.7199999999566315534 ) ) ;
#436 = CARTESIAN_POINT ( 'NONE',  ( -1.519999999999999796, 0.07999999999999998779, -0.7999999999999997113 ) ) ;
#437 = ORIENTED_EDGE ( 'NONE', *, *, #14, .F. ) ;
#438 = CARTESIAN_POINT ( 'NONE',  ( -1.519999999999999796, 0.08000000000000000167, 0.7200000000000001954 ) ) ;
#439 = VECTOR ( 'NONE', #533, 1000.000000000000000 ) ;
#440 = ORIENTED_EDGE ( 'NONE', *, *, #817, .F. ) ;
#441 = CARTESIAN_POINT ( 'NONE',  ( 500000.0000000000582, 0.9733333333333332726, -0.7200000000433679492 ) ) ;
#442 = DIRECTION ( 'NONE',  ( 0.000000000000000000, 0.000000000000000000, 1.000000000000000000 ) ) ;
#443 = PRESENTATION_LAYER_ASSIGNMENT (  '', '', ( #831 ) ) ;
#444 = EDGE_LOOP ( 'NONE', ( #703, #314, #841, #350 ) ) ;
#445 = CARTESIAN_POINT ( 'NONE',  ( -1.599999999999999867, 1.000000000000000000, -0.7199999999999997513 ) ) ;
#446 = VERTEX_POINT ( 'NONE', #200 ) ;
#447 = DIRECTION ( 'NONE',  ( -0.000000000000000000, 1.000000000000000000, -0.000000000000000000 ) ) ;
#448 = CARTESIAN_POINT ( 'NONE',  ( 0.000000000000000000, 0.9200000000000000400, -0.7199999999999997513 ) ) ;
#449 = ORIENTED_EDGE ( 'NONE', *, *, #936, .T. ) ;
#450 = DIRECTION ( 'NONE',  ( 0.000000000000000000, -1.000000000000000000, 0.000000000000000000 ) ) ;
#451 = ORIENTED_EDGE ( 'NONE', *, *, #225, .F. ) ;
#452 = CARTESIAN_POINT ( 'NONE',  ( -1.139999999999999902, 0.07999999999999998779, 0.7200000000000001954 ) ) ;
#453 = DIRECTION ( 'NONE',  ( -0.000000000000000000, -1.000000000000000000, -0.000000000000000000 ) ) ;
#454 = ADVANCED_FACE ( 'NONE', ( #687 ), #1083, .T. ) ;
#455 = DIRECTION ( 'NONE',  ( 1.000000000000000000, 0.000000000000000000, 2.710505431213761578E-16 ) ) ;
#456 = FACE_OUTER_BOUND ( 'NONE', #793, .T. ) ;
#457 = AXIS2_PLACEMENT_3D ( 'NONE', #359, #761, #1064 ) ;
#458 = EDGE_CURVE ( 'NONE', #1028, #519, #492, .T. ) ;
#459 = VECTOR ( 'NONE', #1140, 1000.000000000000000 ) ;
#460 = EDGE_LOOP ( 'NONE', ( #105, #987, #589, #880 ) ) ;
#461 = FACE_OUTER_BOUND ( 'NONE', #578, .T. ) ;
#462 = CARTESIAN_POINT ( 'NONE',  ( -1.599999999999999867, 0.07999999999999998779, -0.7999999999999997113 ) ) ;
#463 = VECTOR ( 'NONE', #660, 1000.000000000000000 ) ;
#464 = VERTEX_POINT ( 'NONE', #699 ) ;
#465 = FACE_OUTER_BOUND ( 'NONE', #1211, .T. ) ;
#466 = CARTESIAN_POINT ( 'NONE',  ( -1.140000000000000346, 0.000000000000000000, -0.7199999999999997513 ) ) ;
#467 = ORIENTED_EDGE ( 'NONE', *, *, #510, .T. ) ;
#468 = DIRECTION ( 'NONE',  ( 0.000000000000000000, 1.000000000000000000, 0.000000000000000000 ) ) ;
#469 = VERTEX_POINT ( 'NONE', #691 ) ;
#470 = CARTESIAN_POINT ( 'NONE',  ( 0.000000000000000000, 1.000000000000000000, 0.000000000000000000 ) ) ;
#471 = DIRECTION ( 'NONE',  ( 0.000000000000000000, 0.000000000000000000, -1.000000000000000000 ) ) ;
#472 = ADVANCED_FACE ( 'NONE', ( #1090 ), #501, .T. ) ;
#473 = EDGE_CURVE ( 'NONE', #940, #497, #8, .T. ) ;
#474 =( NAMED_UNIT ( * ) SI_UNIT ( $, .STERADIAN. ) SOLID_ANGLE_UNIT ( ) );
#475 = DIRECTION ( 'NONE',  ( -0.000000000000000000, -1.000000000000000000, -0.000000000000000000 ) ) ;
#476 = AXIS2_PLACEMENT_3D ( 'NONE', #850, #371, #364 ) ;
#477 = CARTESIAN_POINT ( 'NONE',  ( 1.519999999999999796, 1.000000000000000000, -0.7999999999999997113 ) ) ;
#478 = ORIENTED_EDGE ( 'NONE', *, *, #416, .T. ) ;
#479 = VECTOR ( 'NONE', #168, 1000.000000000000000 ) ;
#480 = VECTOR ( 'NONE', #442, 1000.000000000000000 ) ;
#481 = CYLINDRICAL_SURFACE ( 'NONE', #788, 0.07999999999999998779 ) ;
#482 = AXIS2_PLACEMENT_3D ( 'NONE', #791, #778, #900 ) ;
#483 = DIRECTION ( 'NONE',  ( -1.000000000000000000, 0.000000000000000000, -0.000000000000000000 ) ) ;
#484 = ORIENTED_EDGE ( 'NONE', *, *, #937, .F. ) ;
#485 = DIRECTION ( 'NONE',  ( -1.000000000000000000, 0.000000000000000000, 0.000000000000000000 ) ) ;
#486 = CARTESIAN_POINT ( 'NONE',  ( -1.519999999999999796, 1.000000000000000000, 0.7200000000000001954 ) ) ;
#487 = ORIENTED_EDGE ( 'NONE', *, *, #779, .F. ) ;
#488 = FACE_OUTER_BOUND ( 'NONE', #984, .T. ) ;
#489 = FACE_OUTER_BOUND ( 'NONE', #246, .T. ) ;
#490 = ORIENTED_EDGE ( 'NONE', *, *, #915, .F. ) ;
#491 = DIRECTION ( 'NONE',  ( 0.000000000000000000, 0.000000000000000000, 1.000000000000000000 ) ) ;
#492 = LINE ( 'NONE', #983, #806 ) ;
#493 = EDGE_LOOP ( 'NONE', ( #1256, #1026, #490 ) ) ;
#494 = CARTESIAN_POINT ( 'NONE',  ( -1.519999999999999796, 0.08000000000000000167, 0.7200000000000001954 ) ) ;
#495 = EDGE_CURVE ( 'NONE', #215, #692, #1102, .T. ) ;
#496 = PRESENTATION_STYLE_ASSIGNMENT (( #307 ) ) ;
#497 = VERTEX_POINT ( 'NONE', #1074 ) ;
#498 = AXIS2_PLACEMENT_3D ( 'NONE', #1221, #337, #720 ) ;
#499 = AXIS2_PLACEMENT_3D ( 'NONE', #874, #1193, #382 ) ;
#500 = AXIS2_PLACEMENT_3D ( 'NONE', #141, #334, #323 ) ;
#501 = SPHERICAL_SURFACE ( 'NONE', #765, 0.08000000000000000167 ) ;
#502 = ORIENTED_EDGE ( 'NONE', *, *, #795, .T. ) ;
#503 = AXIS2_PLACEMENT_3D ( 'NONE', #369, #1255, #666 ) ;
#504 = VECTOR ( 'NONE', #978, 1000.000000000000000 ) ;
#505 = LINE ( 'NONE', #881, #869 ) ;
#506 = VERTEX_POINT ( 'NONE', #1271 ) ;
#507 = DIRECTION ( 'NONE',  ( 1.000000000000000000, 0.000000000000000000, -8.673617379884037937E-17 ) ) ;
#508 = ORIENTED_EDGE ( 'NONE', *, *, #1200, .T. ) ;
#509 = CARTESIAN_POINT ( 'NONE',  ( 1.140000000000000346, 1.000000000000000000, -0.7999999999999997113 ) ) ;
#510 = EDGE_CURVE ( 'NONE', #745, #506, #864, .T. ) ;
#511 = UNCERTAINTY_MEASURE_WITH_UNIT (LENGTH_MEASURE( 1.000000000000000082E-05 ), #142, 'distance_accuracy_value', 'NONE');
#512 = VERTEX_POINT ( 'NONE', #1267 ) ;
#513 = CARTESIAN_POINT ( 'NONE',  ( -1.140000000000000124, 0.07999999999999998779, -0.7733333333333329840 ) ) ;
#514 = EDGE_CURVE ( 'NONE', #1212, #714, #377, .T. ) ;
#515 = EDGE_CURVE ( 'NONE', #1253, #512, #522, .T. ) ;
#516 = STYLED_ITEM ( 'NONE', ( #965 ), #51 ) ;
#517 = FACE_OUTER_BOUND ( 'NONE', #1007, .T. ) ;
#518 = ADVANCED_FACE ( 'NONE', ( #630 ), #622, .F. ) ;
#519 = VERTEX_POINT ( 'NONE', #38 ) ;
#520 = DIRECTION ( 'NONE',  ( 0.000000000000000000, 0.000000000000000000, 1.000000000000000000 ) ) ;
#521 = ORIENTED_EDGE ( 'NONE', *, *, #514, .F. ) ;
#522 = LINE ( 'NONE', #1008, #256 ) ;
#523 = CYLINDRICAL_SURFACE ( 'NONE', #301, 0.05333333333333329512 ) ;
#524 = ORIENTED_EDGE ( 'NONE', *, *, #1198, .T. ) ;
#525 = AXIS2_PLACEMENT_3D ( 'NONE', #134, #824, #1097 ) ;
#526 = CIRCLE ( 'NONE', #1043, 0.07999999999999998779 ) ;
#527 = CARTESIAN_POINT ( 'NONE',  ( -1.599999999999999867, 0.07999999999999998779, 0.7200000000000001954 ) ) ;
#528 = ORIENTED_EDGE ( 'NONE', *, *, #972, .T. ) ;
#529 = CARTESIAN_POINT ( 'NONE',  ( 1.140000000020791049, 0.9200000000000000400, 0.7733333333333332060 ) ) ;
#530 = VERTEX_POINT ( 'NONE', #513 ) ;
#531 = DIRECTION ( 'NONE',  ( 0.000000000000000000, 0.000000000000000000, -1.000000000000000000 ) ) ;
#532 = VERTEX_POINT ( 'NONE', #717 ) ;
#533 = DIRECTION ( 'NONE',  ( -1.000000000000000000, -0.000000000000000000, 8.673617379884037937E-17 ) ) ;
#534 = EDGE_LOOP ( 'NONE', ( #934, #16, #1220, #1111 ) ) ;
#535 = VECTOR ( 'NONE', #1067, 1000.000000000000000 ) ;
#536 = DIRECTION ( 'NONE',  ( 1.000000000000000000, -0.000000000000000000, 0.000000000000000000 ) ) ;
#537 = ORIENTED_EDGE ( 'NONE', *, *, #933, .F. ) ;
#538 = DIRECTION ( 'NONE',  ( 0.000000000000000000, 0.000000000000000000, 1.000000000000000000 ) ) ;
#539 = FACE_OUTER_BOUND ( 'NONE', #688, .T. ) ;
#540 = COLOUR_RGB ( '',0.7921568627450980005, 0.8196078431372548767, 0.9333333333333333481 ) ;
#541 = ORIENTED_EDGE ( 'NONE', *, *, #744, .F. ) ;
#542 = AXIS2_PLACEMENT_3D ( 'NONE', #1014, #1002, #1123 ) ;
#543 = CYLINDRICAL_SURFACE ( 'NONE', #152, 0.07999999999999998779 ) ;
#544 = AXIS2_PLACEMENT_3D ( 'NONE', #120, #31, #507 ) ;
#545 = ORIENTED_EDGE ( 'NONE', *, *, #868, .T. ) ;
#546 = CIRCLE ( 'NONE', #810, 0.07999999999999998779 ) ;
#547 = DIRECTION ( 'NONE',  ( 0.000000000000000000, 0.000000000000000000, -1.000000000000000000 ) ) ;
#548 = DIRECTION ( 'NONE',  ( 0.000000000000000000, 0.000000000000000000, 1.000000000000000000 ) ) ;
#549 = CARTESIAN_POINT ( 'NONE',  ( -1.519999999999999796, 1.000000000000000000, -0.7199999999999997513 ) ) ;
#550 = LINE ( 'NONE', #675, #233 ) ;
#551 = ORIENTED_EDGE ( 'NONE', *, *, #911, .F. ) ;
#552 = ADVANCED_FACE ( 'NONE', ( #1023 ), #898, .T. ) ;
#553 = DIRECTION ( 'NONE',  ( 0.000000000000000000, 0.000000000000000000, -1.000000000000000000 ) ) ;
#554 = CARTESIAN_POINT ( 'NONE',  ( -1.140000000000000346, 0.9200000000000000400, -0.7199999999999997513 ) ) ;
#555 = EDGE_CURVE ( 'NONE', #223, #512, #1079, .T. ) ;
#556 = ORIENTED_EDGE ( 'NONE', *, *, #151, .F. ) ;
#557 = ADVANCED_FACE ( 'NONE', ( #807 ), #904, .F. ) ;
#558 = DIRECTION ( 'NONE',  ( 0.000000000000000000, 0.000000000000000000, -1.000000000000000000 ) ) ;
#559 = CLOSED_SHELL ( 'NONE', ( #199, #833, #518, #1259, #593, #610, #1245, #347, #696, #138 ) ) ;
#560 = ORIENTED_EDGE ( 'NONE', *, *, #285, .F. ) ;
#561 = CARTESIAN_POINT ( 'NONE',  ( -1.140000000000000346, 0.07999999999999998779, -0.7199999999999997513 ) ) ;
#562 = DIRECTION ( 'NONE',  ( 1.000000000000000000, 0.000000000000000000, 0.000000000000000000 ) ) ;
#563 = DIRECTION ( 'NONE',  ( 0.000000000000000000, 0.000000000000000000, 1.000000000000000000 ) ) ;
#564 = FACE_OUTER_BOUND ( 'NONE', #291, .T. ) ;
#565 = CIRCLE ( 'NONE', #3, 0.07999999999999998779 ) ;
#566 = ORIENTED_EDGE ( 'NONE', *, *, #303, .T. ) ;
#567 = CIRCLE ( 'NONE', #4, 0.07999999999999998779 ) ;
#568 = CARTESIAN_POINT ( 'NONE',  ( 1.140000000020791049, 0.9200000000000000400, -0.7199999999999999734 ) ) ;
#569 = CARTESIAN_POINT ( 'NONE',  ( 1.140000000000000346, 0.000000000000000000, -0.7999999999999997113 ) ) ;
#570 = CIRCLE ( 'NONE', #673, 0.05333333333333329512 ) ;
#571 = VECTOR ( 'NONE', #1171, 1000.000000000000000 ) ;
#572 = SURFACE_STYLE_USAGE ( .BOTH. , #176 ) ;
#573 = LINE ( 'NONE', #1164, #625 ) ;
#574 = EDGE_CURVE ( 'NONE', #1028, #1237, #20, .T. ) ;
#575 = DIRECTION ( 'NONE',  ( 0.000000000000000000, -0.000000000000000000, 1.000000000000000000 ) ) ;
#576 = DIRECTION ( 'NONE',  ( -1.000000000000000000, 0.000000000000000000, 0.000000000000000000 ) ) ;
#577 = DIRECTION ( 'NONE',  ( 2.710505431213761578E-16, 0.000000000000000000, 1.000000000000000000 ) ) ;
#578 = EDGE_LOOP ( 'NONE', ( #897, #711, #760, #405 ) ) ;
#579 = FILL_AREA_STYLE ('',( #1170 ) ) ;
#580 = DIRECTION ( 'NONE',  ( 0.000000000000000000, 0.000000000000000000, 1.000000000000000000 ) ) ;
#581 = CARTESIAN_POINT ( 'NONE',  ( 1.599999999999999867, 1.000000000000000000, 0.7200000000000001954 ) ) ;
#582 = PRODUCT ( 'GRM_Auto_Q3_3.2_1.6_1_0.46', 'GRM_Auto_Q3_3.2_1.6_1_0.46', '', ( #927 ) ) ;
#583 = AXIS2_PLACEMENT_3D ( 'NONE', #432, #709, #520 ) ;
#584 = FACE_OUTER_BOUND ( 'NONE', #1148, .T. ) ;
#585 = AXIS2_PLACEMENT_3D ( 'NONE', #441, #950, #852 ) ;
#586 = VECTOR ( 'NONE', #762, 1000.000000000000000 ) ;
#587 = CIRCLE ( 'NONE', #1127, 0.07999999999999998779 ) ;
#588 = LINE ( 'NONE', #88, #889 ) ;
#589 = ORIENTED_EDGE ( 'NONE', *, *, #741, .T. ) ;
#590 = DIRECTION ( 'NONE',  ( 1.000000000000000000, 0.000000000000000000, 0.000000000000000000 ) ) ;
#591 = FACE_OUTER_BOUND ( 'NONE', #1158, .T. ) ;
#592 = VERTEX_POINT ( 'NONE', #13 ) ;
#593 = ADVANCED_FACE ( 'NONE', ( #920 ), #408, .F. ) ;
#594 = CARTESIAN_POINT ( 'NONE',  ( 0.000000000000000000, 0.000000000000000000, 0.000000000000000000 ) ) ;
#595 = CARTESIAN_POINT ( 'NONE',  ( -1.599999999999999867, 0.07999999999999998779, -0.7999999999999997113 ) ) ;
#596 = EDGE_CURVE ( 'NONE', #519, #223, #820, .T. ) ;
#597 = ORIENTED_EDGE ( 'NONE', *, *, #819, .T. ) ;
#598 = SPHERICAL_SURFACE ( 'NONE', #91, 0.08000000000000000167 ) ;
#599 = DIRECTION ( 'NONE',  ( 0.000000000000000000, 0.000000000000000000, 1.000000000000000000 ) ) ;
#600 = DIRECTION ( 'NONE',  ( 0.000000000000000000, 0.000000000000000000, 1.000000000000000000 ) ) ;
#601 = ORIENTED_EDGE ( 'NONE', *, *, #936, .F. ) ;
#602 = DIRECTION ( 'NONE',  ( -0.000000000000000000, -0.000000000000000000, -1.000000000000000000 ) ) ;
#603 =( LENGTH_UNIT ( ) NAMED_UNIT ( * ) SI_UNIT ( .MILLI., .METRE. ) );
#604 = UNCERTAINTY_MEASURE_WITH_UNIT (LENGTH_MEASURE( 1.000000000000000082E-05 ), #1088, 'distance_accuracy_value', 'NONE');
#605 = ORIENTED_EDGE ( 'NONE', *, *, #667, .T. ) ;
#606 = CYLINDRICAL_SURFACE ( 'NONE', #1001, 0.07999999999999998779 ) ;
#607 = DIRECTION ( 'NONE',  ( -1.000000000000000000, 0.000000000000000000, 0.000000000000000000 ) ) ;
#608 = CIRCLE ( 'NONE', #767, 0.07999999999999998779 ) ;
#609 = ORIENTED_EDGE ( 'NONE', *, *, #515, .T. ) ;
#610 = ADVANCED_FACE ( 'NONE', ( #1218 ), #309, .T. ) ;
#611 = ORIENTED_EDGE ( 'NONE', *, *, #1109, .F. ) ;
#612 = ADVANCED_FACE ( 'NONE', ( #1104 ), #606, .T. ) ;
#613 = CARTESIAN_POINT ( 'NONE',  ( 0.000000000000000000, 0.9200000000000000400, 0.7200000000000001954 ) ) ;
#614 = ORIENTED_EDGE ( 'NONE', *, *, #1017, .F. ) ;
#615 = DIRECTION ( 'NONE',  ( -1.000000000000000000, 0.000000000000000000, 0.000000000000000000 ) ) ;
#616 = ORIENTED_EDGE ( 'NONE', *, *, #289, .F. ) ;
#617 = CARTESIAN_POINT ( 'NONE',  ( 1.139999999999999902, 0.9200000000000000400, 0.8000000000000001554 ) ) ;
#618 = CARTESIAN_POINT ( 'NONE',  ( 1.519999999999999796, 0.08000000000000000167, 0.7200000000000001954 ) ) ;
#619 = VERTEX_POINT ( 'NONE', #413 ) ;
#620 = DIRECTION ( 'NONE',  ( 0.000000000000000000, -1.000000000000000000, 0.000000000000000000 ) ) ;
#621 = VERTEX_POINT ( 'NONE', #695 ) ;
#622 = PLANE ( 'NONE',  #544 ) ;
#623 = VECTOR ( 'NONE', #677, 1000.000000000000000 ) ;
#624 = CARTESIAN_POINT ( 'NONE',  ( 1.599999999999999867, 0.07999999999999998779, 0.8000000000000001554 ) ) ;
#625 = VECTOR ( 'NONE', #374, 1000.000000000000000 ) ;
#626 = EDGE_LOOP ( 'NONE', ( #61, #210, #545, #422 ) ) ;
#627 = AXIS2_PLACEMENT_3D ( 'NONE', #302, #98, #411 ) ;
#628 = MECHANICAL_DESIGN_GEOMETRIC_PRESENTATION_REPRESENTATION (  '', ( #831 ), #916 ) ;
#629 = ORIENTED_EDGE ( 'NONE', *, *, #973, .F. ) ;
#630 = FACE_OUTER_BOUND ( 'NONE', #194, .T. ) ;
#631 = CARTESIAN_POINT ( 'NONE',  ( -1.519999999999999796, 0.9200000000000000400, 0.000000000000000000 ) ) ;
#632 = ORIENTED_EDGE ( 'NONE', *, *, #114, .F. ) ;
#633 = EDGE_CURVE ( 'NONE', #700, #899, #1113, .T. ) ;
#634 = ORIENTED_EDGE ( 'NONE', *, *, #973, .T. ) ;
#635 = LINE ( 'NONE', #641, #808 ) ;
#636 = CYLINDRICAL_SURFACE ( 'NONE', #300, 0.07999999999999998779 ) ;
#637 = VERTEX_POINT ( 'NONE', #617 ) ;
#638 = CARTESIAN_POINT ( 'NONE',  ( -1.140000000000000346, 0.9200000000000000400, -0.7999999999999997113 ) ) ;
#639 = SPHERICAL_SURFACE ( 'NONE', #1100, 0.08000000000000000167 ) ;
#640 = ORIENTED_EDGE ( 'NONE', *, *, #1200, .F. ) ;
#641 = CARTESIAN_POINT ( 'NONE',  ( 500000.0000000000582, 0.07999999999999998779, -0.7733333333767011819 ) ) ;
#642 = PRESENTATION_STYLE_ASSIGNMENT (( #277 ) ) ;
#643 = AXIS2_PLACEMENT_3D ( 'NONE', #438, #830, #326 ) ;
#644 = ORIENTED_EDGE ( 'NONE', *, *, #510, .F. ) ;
#645 = CARTESIAN_POINT ( 'NONE',  ( -1.140000000000000124, 0.08000000000000020983, 0.7733333333333334281 ) ) ;
#646 = CIRCLE ( 'NONE', #1167, 0.07999999999999998779 ) ;
#647 = EDGE_CURVE ( 'NONE', #1186, #226, #423, .T. ) ;
#648 = ADVANCED_FACE ( 'NONE', ( #926 ), #115, .F. ) ;
#649 = VERTEX_POINT ( 'NONE', #315 ) ;
#650 = AXIS2_PLACEMENT_3D ( 'NONE', #896, #387, #1278 ) ;
#651 = DIRECTION ( 'NONE',  ( 0.000000000000000000, 0.000000000000000000, -1.000000000000000000 ) ) ;
#652 = EDGE_CURVE ( 'NONE', #361, #25, #1166, .T. ) ;
#653 = EDGE_CURVE ( 'NONE', #714, #530, #635, .T. ) ;
#654 = LINE ( 'NONE', #175, #1146 ) ;
#655 = VECTOR ( 'NONE', #1024, 1000.000000000000000 ) ;
#656 = ORIENTED_EDGE ( 'NONE', *, *, #1112, .F. ) ;
#657 = LINE ( 'NONE', #274, #186 ) ;
#658 = EDGE_LOOP ( 'NONE', ( #172, #402, #1196, #140 ) ) ;
#659 = CARTESIAN_POINT ( 'NONE',  ( -1.140000000000000346, 0.000000000000000000, -0.7999999999999997113 ) ) ;
#660 = DIRECTION ( 'NONE',  ( 2.710505431213761578E-16, -0.000000000000000000, -1.000000000000000000 ) ) ;
#661 = SURFACE_SIDE_STYLE ('',( #126 ) ) ;
#662 = ORIENTED_EDGE ( 'NONE', *, *, #419, .F. ) ;
#663 = LINE ( 'NONE', #445, #129 ) ;
#664 = ORIENTED_EDGE ( 'NONE', *, *, #779, .T. ) ;
#665 = DIRECTION ( 'NONE',  ( 0.000000000000000000, 0.000000000000000000, 1.000000000000000000 ) ) ;
#666 = DIRECTION ( 'NONE',  ( 0.000000000000000000, 0.000000000000000000, 1.000000000000000000 ) ) ;
#667 = EDGE_CURVE ( 'NONE', #469, #1121, #258, .T. ) ;
#668 = CARTESIAN_POINT ( 'NONE',  ( 1.519999999999999796, 0.07999999999999998779, -0.7999999999999997113 ) ) ;
#669 = DIRECTION ( 'NONE',  ( 0.000000000000000000, 0.000000000000000000, -1.000000000000000000 ) ) ;
#670 = CIRCLE ( 'NONE', #1163, 0.07999999999999998779 ) ;
#671 = AXIS2_PLACEMENT_3D ( 'NONE', #76, #62, #547 ) ;
#672 = CARTESIAN_POINT ( 'NONE',  ( -1.140000000000000124, 0.9733333333333332726, -0.7199999999999997513 ) ) ;
#673 = AXIS2_PLACEMENT_3D ( 'NONE', #956, #843, #1235 ) ;
#674 = CARTESIAN_POINT ( 'NONE',  ( -1.139999999999999902, 1.000000000000000000, 0.7199999999999997513 ) ) ;
#675 = CARTESIAN_POINT ( 'NONE',  ( -1.140000000000000124, 0.02666666666666666491, 0.7199999999999997513 ) ) ;
#676 = DIRECTION ( 'NONE',  ( 0.000000000000000000, 0.000000000000000000, -1.000000000000000000 ) ) ;
#677 = DIRECTION ( 'NONE',  ( 2.710505431213761578E-16, -0.000000000000000000, -1.000000000000000000 ) ) ;
#678 = DIRECTION ( 'NONE',  ( 0.000000000000000000, 0.000000000000000000, 1.000000000000000000 ) ) ;
#679 = FACE_OUTER_BOUND ( 'NONE', #799, .T. ) ;
#680 = DIRECTION ( 'NONE',  ( 0.000000000000000000, 1.000000000000000000, 0.000000000000000000 ) ) ;
#681 = EDGE_LOOP ( 'NONE', ( #1141, #609, #797, #1004 ) ) ;
#682 = CARTESIAN_POINT ( 'NONE',  ( 1.140000000000000346, 1.000000000000000000, -0.7199999999999997513 ) ) ;
#683 = DIRECTION ( 'NONE',  ( 1.000000000000000000, 0.000000000000000000, 2.710505431213761578E-16 ) ) ;
#684 = ADVANCED_FACE ( 'NONE', ( #847 ), #963, .F. ) ;
#685 = AXIS2_PLACEMENT_3D ( 'NONE', #780, #1082, #575 ) ;
#686 = VECTOR ( 'NONE', #218, 1000.000000000000000 ) ;
#687 = FACE_OUTER_BOUND ( 'NONE', #886, .T. ) ;
#688 = EDGE_LOOP ( 'NONE', ( #813, #925, #1114, #726 ) ) ;
#689 = CARTESIAN_POINT ( 'NONE',  ( -1.519999999999999796, 1.000000000000000000, 0.7200000000000001954 ) ) ;
#690 = SPHERICAL_SURFACE ( 'NONE', #867, 0.08000000000000000167 ) ;
#691 = CARTESIAN_POINT ( 'NONE',  ( 1.519999999999999796, 0.07999999999999998779, 0.8000000000000001554 ) ) ;
#692 = VERTEX_POINT ( 'NONE', #163 ) ;
#693 = CARTESIAN_POINT ( 'NONE',  ( 500000.0000000000582, 0.08000000000000020983, 0.7733333332899652302 ) ) ;
#694 = ORIENTED_EDGE ( 'NONE', *, *, #303, .F. ) ;
#695 = CARTESIAN_POINT ( 'NONE',  ( 1.139999999999999902, 1.000000000000000000, 0.7199999999999997513 ) ) ;
#696 = ADVANCED_FACE ( 'NONE', ( #461 ), #737, .F. ) ;
#697 = CARTESIAN_POINT ( 'NONE',  ( 1.140000000020791049, 0.02666666666666666491, -0.7199999999999995293 ) ) ;
#698 = EDGE_CURVE ( 'NONE', #1135, #1028, #397, .T. ) ;
#699 = CARTESIAN_POINT ( 'NONE',  ( 1.519999999999999796, 0.07999999999999998779, -0.7999999999999997113 ) ) ;
#700 = VERTEX_POINT ( 'NONE', #366 ) ;
#701 = EDGE_CURVE ( 'NONE', #649, #385, #567, .T. ) ;
#702 = MECHANICAL_DESIGN_GEOMETRIC_PRESENTATION_REPRESENTATION (  '', ( #230 ), #1222 ) ;
#703 = ORIENTED_EDGE ( 'NONE', *, *, #972, .F. ) ;
#704 = AXIS2_PLACEMENT_3D ( 'NONE', #292, #404, #101 ) ;
#705 = DIRECTION ( 'NONE',  ( 1.000000000000000000, 0.000000000000000000, 0.000000000000000000 ) ) ;
#706 = PLANE ( 'NONE',  #870 ) ;
#707 = AXIS2_PLACEMENT_3D ( 'NONE', #180, #992, #372 ) ;
#708 = ORIENTED_EDGE ( 'NONE', *, *, #596, .F. ) ;
#709 = DIRECTION ( 'NONE',  ( -1.000000000000000000, -0.000000000000000000, 8.673617379884037937E-17 ) ) ;
#710 = CARTESIAN_POINT ( 'NONE',  ( 1.519999999999999796, 0.08000000000000000167, 0.7200000000000001954 ) ) ;
#711 = ORIENTED_EDGE ( 'NONE', *, *, #368, .T. ) ;
#712 = CARTESIAN_POINT ( 'NONE',  ( -1.140000000000000124, 0.07999999999999998779, 0.7200000000000001954 ) ) ;
#713 =( NAMED_UNIT ( * ) SI_UNIT ( $, .STERADIAN. ) SOLID_ANGLE_UNIT ( ) );
#714 = VERTEX_POINT ( 'NONE', #1156 ) ;
#715 = DIRECTION ( 'NONE',  ( -0.000000000000000000, 0.000000000000000000, 1.000000000000000000 ) ) ;
#716 = ORIENTED_EDGE ( 'NONE', *, *, #1187, .T. ) ;
#717 = CARTESIAN_POINT ( 'NONE',  ( 1.519999999999999796, 1.000000000000000000, -0.7199999999999997513 ) ) ;
#718 = CYLINDRICAL_SURFACE ( 'NONE', #943, 0.07999999999999998779 ) ;
#719 = ORIENTED_EDGE ( 'NONE', *, *, #93, .T. ) ;
#720 = DIRECTION ( 'NONE',  ( 1.000000000000000000, 0.000000000000000000, 0.000000000000000000 ) ) ;
#721 = EDGE_LOOP ( 'NONE', ( #929, #196, #1059, #958 ) ) ;
#722 = DIRECTION ( 'NONE',  ( -0.000000000000000000, -1.000000000000000000, -0.000000000000000000 ) ) ;
#723 = FACE_OUTER_BOUND ( 'NONE', #308, .T. ) ;
#724 = ADVANCED_FACE ( 'NONE', ( #935 ), #1060, .T. ) ;
#725 = VECTOR ( 'NONE', #390, 1000.000000000000000 ) ;
#726 = ORIENTED_EDGE ( 'NONE', *, *, #229, .T. ) ;
#727 = DIRECTION ( 'NONE',  ( -1.000000000000000000, -0.000000000000000000, 8.673617379884037937E-17 ) ) ;
#728 = CIRCLE ( 'NONE', #177, 0.07999999999999998779 ) ;
#729 = AXIS2_PLACEMENT_3D ( 'NONE', #618, #244, #136 ) ;
#730 = VERTEX_POINT ( 'NONE', #356 ) ;
#731 = CARTESIAN_POINT ( 'NONE',  ( 1.599999999999999867, 0.9200000000000000400, 0.8000000000000001554 ) ) ;
#732 = DIRECTION ( 'NONE',  ( 0.000000000000000000, -1.000000000000000000, 0.000000000000000000 ) ) ;
#733 = CARTESIAN_POINT ( 'NONE',  ( 1.140000000020791049, 0.08000000000000020983, 0.7733333333333332060 ) ) ;
#734 = ORIENTED_EDGE ( 'NONE', *, *, #96, .F. ) ;
#735 = FACE_OUTER_BOUND ( 'NONE', #493, .T. ) ;
#736 = ORIENTED_EDGE ( 'NONE', *, *, #225, .T. ) ;
#737 = PLANE ( 'NONE',  #585 ) ;
#738 = EDGE_CURVE ( 'NONE', #1212, #909, #945, .T. ) ;
#739 = VERTEX_POINT ( 'NONE', #466 ) ;
#740 = ADVANCED_FACE ( 'NONE', ( #351 ), #147, .F. ) ;
#741 = EDGE_CURVE ( 'NONE', #305, #692, #341, .T. ) ;
#742 = PLANE ( 'NONE',  #1180 ) ;
#743 = EDGE_CURVE ( 'NONE', #637, #427, #53, .T. ) ;
#744 = EDGE_CURVE ( 'NONE', #714, #1186, #1238, .T. ) ;
#745 = VERTEX_POINT ( 'NONE', #1132 ) ;
#746 = CARTESIAN_POINT ( 'NONE',  ( 1.519999999999999796, 0.07999999999999998779, -0.7199999999999997513 ) ) ;
#747 = PLANE ( 'NONE',  #787 ) ;
#748 = VECTOR ( 'NONE', #727, 1000.000000000000000 ) ;
#749 = CYLINDRICAL_SURFACE ( 'NONE', #1179, 0.07999999999999998779 ) ;
#750 = FACE_OUTER_BOUND ( 'NONE', #391, .T. ) ;
#751 = CIRCLE ( 'NONE', #503, 0.07999999999999998779 ) ;
#752 = ORIENTED_EDGE ( 'NONE', *, *, #11, .F. ) ;
#753 = VECTOR ( 'NONE', #294, 1000.000000000000000 ) ;
#754 = DIRECTION ( 'NONE',  ( 1.000000000000000000, -0.000000000000000000, -2.710505431213761578E-16 ) ) ;
#755 = DIRECTION ( 'NONE',  ( 0.000000000000000000, 0.000000000000000000, 1.000000000000000000 ) ) ;
#756 = ORIENTED_EDGE ( 'NONE', *, *, #698, .F. ) ;
#757 = LINE ( 'NONE', #1159, #296 ) ;
#758 = ORIENTED_EDGE ( 'NONE', *, *, #1198, .F. ) ;
#759 = DIRECTION ( 'NONE',  ( -1.000000000000000000, 0.000000000000000000, 0.000000000000000000 ) ) ;
#760 = ORIENTED_EDGE ( 'NONE', *, *, #890, .T. ) ;
#761 = DIRECTION ( 'NONE',  ( 1.000000000000000000, 0.000000000000000000, 0.000000000000000000 ) ) ;
#762 = DIRECTION ( 'NONE',  ( 2.710505431213761578E-16, 0.000000000000000000, -1.000000000000000000 ) ) ;
#763 = ORIENTED_EDGE ( 'NONE', *, *, #37, .T. ) ;
#764 = DIRECTION ( 'NONE',  ( 0.000000000000000000, 1.000000000000000000, 0.000000000000000000 ) ) ;
#765 = AXIS2_PLACEMENT_3D ( 'NONE', #772, #894, #184 ) ;
#766 = CARTESIAN_POINT ( 'NONE',  ( 1.519999999999999796, 0.9200000000000000400, 0.7200000000000001954 ) ) ;
#767 = AXIS2_PLACEMENT_3D ( 'NONE', #554, #1138, #261 ) ;
#768 =( NAMED_UNIT ( * ) PLANE_ANGLE_UNIT ( ) SI_UNIT ( $, .RADIAN. ) );
#769 = AXIS2_PLACEMENT_3D ( 'NONE', #689, #203, #1184 ) ;
#770 = VECTOR ( 'NONE', #1273, 1000.000000000000000 ) ;
#771 = PRESENTATION_STYLE_ASSIGNMENT (( #380 ) ) ;
#772 = CARTESIAN_POINT ( 'NONE',  ( -1.519999999999999796, 0.08000000000000000167, -0.7199999999999997513 ) ) ;
#773 = DIRECTION ( 'NONE',  ( 0.000000000000000000, -1.000000000000000000, 0.000000000000000000 ) ) ;
#774 = ADVANCED_BREP_SHAPE_REPRESENTATION ( 'GRM_Auto_Q3_3.2_1.6_1_0.46', ( #901, #59, #51, #1270 ), #116 ) ;
#775 = EDGE_CURVE ( 'NONE', #464, #1000, #526, .T. ) ;
#776 = DIRECTION ( 'NONE',  ( -1.000000000000000000, -0.000000000000000000, 8.673617379884037937E-17 ) ) ;
#777 = ORIENTED_EDGE ( 'NONE', *, *, #837, .F. ) ;
#778 = DIRECTION ( 'NONE',  ( -1.000000000000000000, -0.000000000000000000, -0.000000000000000000 ) ) ;
#779 = EDGE_CURVE ( 'NONE', #1186, #143, #72, .T. ) ;
#780 = CARTESIAN_POINT ( 'NONE',  ( 0.000000000000000000, 0.000000000000000000, 0.000000000000000000 ) ) ;
#781 = APPLICATION_CONTEXT ( 'automotive_design' ) ;
#782 = DIRECTION ( 'NONE',  ( 1.000000000000000000, 0.000000000000000000, -8.673617379884036705E-17 ) ) ;
#783 = ORIENTED_EDGE ( 'NONE', *, *, #379, .F. ) ;
#784 = PLANE ( 'NONE',  #627 ) ;
#785 = FACE_OUTER_BOUND ( 'NONE', #119, .T. ) ;
#786 = AXIS2_PLACEMENT_3D ( 'NONE', #393, #1264, #676 ) ;
#787 = AXIS2_PLACEMENT_3D ( 'NONE', #509, #1195, #1005 ) ;
#788 = AXIS2_PLACEMENT_3D ( 'NONE', #1089, #316, #345 ) ;
#789 = DIRECTION ( 'NONE',  ( 0.000000000000000000, 0.000000000000000000, 1.000000000000000000 ) ) ;
#790 = ORIENTED_EDGE ( 'NONE', *, *, #875, .F. ) ;
#791 = CARTESIAN_POINT ( 'NONE',  ( -1.519999999999999796, 0.07999999999999998779, -0.7199999999999997513 ) ) ;
#792 =( NAMED_UNIT ( * ) PLANE_ANGLE_UNIT ( ) SI_UNIT ( $, .RADIAN. ) );
#793 = EDGE_LOOP ( 'NONE', ( #566, #1128, #1233, #66 ) ) ;
#794 = EDGE_CURVE ( 'NONE', #25, #739, #1048, .T. ) ;
#795 = EDGE_CURVE ( 'NONE', #739, #899, #260, .T. ) ;
#796 = DIRECTION ( 'NONE',  ( 0.000000000000000000, 0.000000000000000000, 1.000000000000000000 ) ) ;
#797 = ORIENTED_EDGE ( 'NONE', *, *, #328, .T. ) ;
#798 = CYLINDRICAL_SURFACE ( 'NONE', #981, 0.07999999999999998779 ) ;
#799 = EDGE_LOOP ( 'NONE', ( #231, #1021, #399, #149, #122, #708, #662, #417 ) ) ;
#800 = DIRECTION ( 'NONE',  ( -1.000000000000000000, 0.000000000000000000, 0.000000000000000000 ) ) ;
#801 = DIRECTION ( 'NONE',  ( 0.000000000000000000, 0.000000000000000000, 1.000000000000000000 ) ) ;
#802 = ORIENTED_EDGE ( 'NONE', *, *, #652, .F. ) ;
#803 = CARTESIAN_POINT ( 'NONE',  ( 1.599999999999999867, 0.07999999999999998779, 0.7200000000000001954 ) ) ;
#804 = CIRCLE ( 'NONE', #23, 0.07999999999999998779 ) ;
#805 = ORIENTED_EDGE ( 'NONE', *, *, #667, .F. ) ;
#806 = VECTOR ( 'NONE', #994, 1000.000000000000000 ) ;
#807 = FACE_OUTER_BOUND ( 'NONE', #22, .T. ) ;
#808 = VECTOR ( 'NONE', #1039, 1000.000000000000000 ) ;
#809 = SPHERICAL_SURFACE ( 'NONE', #400, 0.08000000000000000167 ) ;
#810 = AXIS2_PLACEMENT_3D ( 'NONE', #986, #599, #290 ) ;
#811 = VERTEX_POINT ( 'NONE', #1168 ) ;
#812 = CIRCLE ( 'NONE', #729, 0.07999999999999998779 ) ;
#813 = ORIENTED_EDGE ( 'NONE', *, *, #817, .T. ) ;
#814 = DIRECTION ( 'NONE',  ( 0.000000000000000000, -1.000000000000000000, 0.000000000000000000 ) ) ;
#815 = DIRECTION ( 'NONE',  ( 0.000000000000000000, 1.000000000000000000, 0.000000000000000000 ) ) ;
#816 = ORIENTED_EDGE ( 'NONE', *, *, #574, .F. ) ;
#817 = EDGE_CURVE ( 'NONE', #745, #1131, #1126, .T. ) ;
#818 = ORIENTED_EDGE ( 'NONE', *, *, #917, .T. ) ;
#819 = EDGE_CURVE ( 'NONE', #497, #1121, #546, .T. ) ;
#820 = LINE ( 'NONE', #910, #960 ) ;
#821 = CARTESIAN_POINT ( 'NONE',  ( -1.519999999999999796, 0.9200000000000000400, 0.7200000000000001954 ) ) ;
#822 = ORIENTED_EDGE ( 'NONE', *, *, #647, .T. ) ;
#823 = VERTEX_POINT ( 'NONE', #375 ) ;
#824 = DIRECTION ( 'NONE',  ( 1.000000000000000000, 0.000000000000000000, 0.000000000000000000 ) ) ;
#825 = DIRECTION ( 'NONE',  ( 0.000000000000000000, 0.000000000000000000, 1.000000000000000000 ) ) ;
#826 = AXIS2_PLACEMENT_3D ( 'NONE', #1147, #450, #558 ) ;
#827 = EDGE_LOOP ( 'NONE', ( #891, #1092, #634, #137 ) ) ;
#828 = AXIS2_PLACEMENT_3D ( 'NONE', #1054, #447, #553 ) ;
#829 = AXIS2_PLACEMENT_3D ( 'NONE', #980, #773, #485 ) ;
#830 = DIRECTION ( 'NONE',  ( -1.000000000000000000, 0.000000000000000000, 0.000000000000000000 ) ) ;
#831 = STYLED_ITEM ( 'NONE', ( #642 ), #774 ) ;
#832 = ORIENTED_EDGE ( 'NONE', *, *, #1070, .T. ) ;
#833 = ADVANCED_FACE ( 'NONE', ( #679 ), #99, .F. ) ;
#834 = DIRECTION ( 'NONE',  ( 1.000000000000000000, 0.000000000000000000, 2.710505431213761578E-16 ) ) ;
#835 = CARTESIAN_POINT ( 'NONE',  ( 1.139999999999999902, 0.000000000000000000, 0.7199999999999997513 ) ) ;
#836 = ADVANCED_FACE ( 'NONE', ( #489 ), #1269, .F. ) ;
#837 = EDGE_CURVE ( 'NONE', #464, #730, #1072, .T. ) ;
#838 = ORIENTED_EDGE ( 'NONE', *, *, #795, .F. ) ;
#839 = ADVANCED_FACE ( 'NONE', ( #584 ), #882, .F. ) ;
#840 = CARTESIAN_POINT ( 'NONE',  ( -1.519999999999999796, 1.000000000000000000, 0.8000000000000001554 ) ) ;
#841 = ORIENTED_EDGE ( 'NONE', *, *, #555, .T. ) ;
#842 = DIRECTION ( 'NONE',  ( 1.000000000000000000, 0.000000000000000000, 0.000000000000000000 ) ) ;
#843 = DIRECTION ( 'NONE',  ( 1.000000000000000000, 0.000000000000000000, -8.673617379884036705E-17 ) ) ;
#844 = VERTEX_POINT ( 'NONE', #866 ) ;
#845 = DIRECTION ( 'NONE',  ( -0.000000000000000000, 0.000000000000000000, -1.000000000000000000 ) ) ;
#846 = ORIENTED_EDGE ( 'NONE', *, *, #458, .T. ) ;
#847 = FACE_OUTER_BOUND ( 'NONE', #721, .T. ) ;
#848 = LINE ( 'NONE', #1248, #1230 ) ;
#849 = ORIENTED_EDGE ( 'NONE', *, *, #1033, .F. ) ;
#850 = CARTESIAN_POINT ( 'NONE',  ( 1.599999999999999867, 1.000000000000000000, -0.7999999999999997113 ) ) ;
#851 = ORIENTED_EDGE ( 'NONE', *, *, #596, .T. ) ;
#852 = DIRECTION ( 'NONE',  ( 0.000000000000000000, -0.000000000000000000, -1.000000000000000000 ) ) ;
#853 = CARTESIAN_POINT ( 'NONE',  ( 1.140000000020791049, 0.9200000000000000400, 0.7733333333333332060 ) ) ;
#854 = DIRECTION ( 'NONE',  ( 0.000000000000000000, -1.000000000000000000, -0.000000000000000000 ) ) ;
#855 = DIRECTION ( 'NONE',  ( 1.000000000000000000, 0.000000000000000000, 2.710505431213761578E-16 ) ) ;
#856 = CARTESIAN_POINT ( 'NONE',  ( 1.140000000000000346, 0.9200000000000000400, -0.7199999999999997513 ) ) ;
#857 = PRODUCT_RELATED_PRODUCT_CATEGORY ( 'part', '', ( #582 ) ) ;
#858 = ADVANCED_FACE ( 'NONE', ( #785 ), #1280, .T. ) ;
#859 = CARTESIAN_POINT ( 'NONE',  ( -1.519999999999999796, 0.08000000000000000167, -0.7199999999999997513 ) ) ;
#860 = DIRECTION ( 'NONE',  ( -0.000000000000000000, 0.000000000000000000, -1.000000000000000000 ) ) ;
#861 = CARTESIAN_POINT ( 'NONE',  ( -1.140000000000000124, 0.9200000000000000400, -0.7199999999999997513 ) ) ;
#862 = LINE ( 'NONE', #421, #748 ) ;
#863 = VECTOR ( 'NONE', #715, 1000.000000000000000 ) ;
#864 = LINE ( 'NONE', #189, #939 ) ;
#865 = CIRCLE ( 'NONE', #1022, 0.07999999999999998779 ) ;
#866 = CARTESIAN_POINT ( 'NONE',  ( -1.140000000000000346, 1.000000000000000000, -0.7199999999999997513 ) ) ;
#867 = AXIS2_PLACEMENT_3D ( 'NONE', #1086, #198, #1160 ) ;
#868 = EDGE_CURVE ( 'NONE', #427, #102, #1229, .T. ) ;
#869 = VECTOR ( 'NONE', #602, 1000.000000000000000 ) ;
#870 = AXIS2_PLACEMENT_3D ( 'NONE', #33, #1210, #238 ) ;
#871 = ADVANCED_FACE ( 'NONE', ( #383 ), #970, .T. ) ;
#872 = ADVANCED_FACE ( 'NONE', ( #878 ), #193, .F. ) ;
#873 = ADVANCED_FACE ( 'NONE', ( #591 ), #690, .T. ) ;
#874 = CARTESIAN_POINT ( 'NONE',  ( -1.140000000000000124, 0.9200000000000000400, 0.7200000000000001954 ) ) ;
#875 = EDGE_CURVE ( 'NONE', #621, #637, #280, .T. ) ;
#876 = ORIENTED_EDGE ( 'NONE', *, *, #403, .T. ) ;
#877 = CARTESIAN_POINT ( 'NONE',  ( 1.599999999999999867, 0.9200000000000000400, -0.7999999999999997113 ) ) ;
#878 = FACE_OUTER_BOUND ( 'NONE', #322, .T. ) ;
#879 = CARTESIAN_POINT ( 'NONE',  ( 500000.0000000000582, 0.9733333333333332726, -0.7200000000433679492 ) ) ;
#880 = ORIENTED_EDGE ( 'NONE', *, *, #1203, .T. ) ;
#881 = CARTESIAN_POINT ( 'NONE',  ( 1.519999999999999796, 0.000000000000000000, 0.000000000000000000 ) ) ;
#882 = PLANE ( 'NONE',  #685 ) ;
#883 = ORIENTED_EDGE ( 'NONE', *, *, #287, .F. ) ;
#884 = DIRECTION ( 'NONE',  ( 1.000000000000000000, 0.000000000000000000, 0.000000000000000000 ) ) ;
#885 = CYLINDRICAL_SURFACE ( 'NONE', #338, 0.05333333333333329512 ) ;
#886 = EDGE_LOOP ( 'NONE', ( #269, #395, #205, #1215 ) ) ;
#887 = EDGE_CURVE ( 'NONE', #1253, #1212, #104, .T. ) ;
#888 = CARTESIAN_POINT ( 'NONE',  ( 1.140000000020791049, 0.9199999999999998179, -0.7733333333333332060 ) ) ;
#889 = VECTOR ( 'NONE', #483, 1000.000000000000000 ) ;
#890 = EDGE_CURVE ( 'NONE', #336, #1189, #275, .T. ) ;
#891 = ORIENTED_EDGE ( 'NONE', *, *, #1091, .F. ) ;
#892 = VECTOR ( 'NONE', #259, 1000.000000000000000 ) ;
#893 = CIRCLE ( 'NONE', #482, 0.07999999999999998779 ) ;
#894 = DIRECTION ( 'NONE',  ( 0.000000000000000000, 1.000000000000000000, 0.000000000000000000 ) ) ;
#895 = ORIENTED_EDGE ( 'NONE', *, *, #744, .T. ) ;
#896 = CARTESIAN_POINT ( 'NONE',  ( -1.139999999999999902, 0.9200000000000000400, 0.7200000000000001954 ) ) ;
#897 = ORIENTED_EDGE ( 'NONE', *, *, #37, .F. ) ;
#898 = CYLINDRICAL_SURFACE ( 'NONE', #155, 0.07999999999999998779 ) ;
#899 = VERTEX_POINT ( 'NONE', #967 ) ;
#900 = DIRECTION ( 'NONE',  ( 0.000000000000000000, 0.000000000000000000, 1.000000000000000000 ) ) ;
#901 = MANIFOLD_SOLID_BREP ( 'Fillet1', #1174 ) ;
#902 = VECTOR ( 'NONE', #563, 1000.000000000000000 ) ;
#903 = ORIENTED_EDGE ( 'NONE', *, *, #1068, .T. ) ;
#904 = PLANE ( 'NONE',  #525 ) ;
#905 = LINE ( 'NONE', #624, #655 ) ;
#906 = EDGE_LOOP ( 'NONE', ( #39, #616, #1018, #752 ) ) ;
#907 = LINE ( 'NONE', #982, #571 ) ;
#908 = DIRECTION ( 'NONE',  ( -1.000000000000000000, 0.000000000000000000, 0.000000000000000000 ) ) ;
#909 = VERTEX_POINT ( 'NONE', #951 ) ;
#910 = CARTESIAN_POINT ( 'NONE',  ( -1.140000000000000124, 0.9200000000000000400, 0.7733333333333334281 ) ) ;
#911 = EDGE_CURVE ( 'NONE', #592, #1000, #646, .T. ) ;
#912 = CARTESIAN_POINT ( 'NONE',  ( 1.519999999999999796, 1.000000000000000000, 0.8000000000000001554 ) ) ;
#913 = AXIS2_PLACEMENT_3D ( 'NONE', #861, #1185, #1173 ) ;
#914 = ORIENTED_EDGE ( 'NONE', *, *, #250, .T. ) ;
#915 = EDGE_CURVE ( 'NONE', #532, #730, #979, .T. ) ;
#916 =( GEOMETRIC_REPRESENTATION_CONTEXT ( 3 ) GLOBAL_UNCERTAINTY_ASSIGNED_CONTEXT ( ( #604 ) ) GLOBAL_UNIT_ASSIGNED_CONTEXT ( ( #1088, #768, #85 ) ) REPRESENTATION_CONTEXT ( 'NONE', 'WORKASPACE' ) );
#917 = EDGE_CURVE ( 'NONE', #700, #844, #608, .T. ) ;
#918 = DIRECTION ( 'NONE',  ( 1.000000000000000000, -0.000000000000000000, 0.000000000000000000 ) ) ;
#919 = ORIENTED_EDGE ( 'NONE', *, *, #794, .F. ) ;
#920 = FACE_OUTER_BOUND ( 'NONE', #681, .T. ) ;
#921 = APPLICATION_PROTOCOL_DEFINITION ( 'draft international standard', 'automotive_design', 1998, #781 ) ;
#922 = ORIENTED_EDGE ( 'NONE', *, *, #58, .T. ) ;
#923 = DIRECTION ( 'NONE',  ( 1.000000000000000000, -0.000000000000000000, -0.000000000000000000 ) ) ;
#924 = FACE_OUTER_BOUND ( 'NONE', #146, .T. ) ;
#925 = ORIENTED_EDGE ( 'NONE', *, *, #961, .T. ) ;
#926 = FACE_OUTER_BOUND ( 'NONE', #827, .T. ) ;
#927 = PRODUCT_CONTEXT ( 'NONE', #781, 'mechanical' ) ;
#928 = FACE_OUTER_BOUND ( 'NONE', #355, .T. ) ;
#929 = ORIENTED_EDGE ( 'NONE', *, *, #1244, .F. ) ;
#930 =( LENGTH_UNIT ( ) NAMED_UNIT ( * ) SI_UNIT ( .MILLI., .METRE. ) );
#931 = DIRECTION ( 'NONE',  ( 0.000000000000000000, 1.000000000000000000, 0.000000000000000000 ) ) ;
#932 = VECTOR ( 'NONE', #1073, 1000.000000000000000 ) ;
#933 = EDGE_CURVE ( 'NONE', #811, #361, #148, .T. ) ;
#934 = ORIENTED_EDGE ( 'NONE', *, *, #495, .T. ) ;
#935 = FACE_OUTER_BOUND ( 'NONE', #534, .T. ) ;
#936 = EDGE_CURVE ( 'NONE', #811, #649, #654, .T. ) ;
#937 = EDGE_CURVE ( 'NONE', #464, #592, #751, .T. ) ;
#938 = CARTESIAN_POINT ( 'NONE',  ( 1.599999999999999867, 0.07999999999999998779, -0.7999999999999997113 ) ) ;
#939 = VECTOR ( 'NONE', #95, 1000.000000000000000 ) ;
#940 = VERTEX_POINT ( 'NONE', #835 ) ;
#941 = VECTOR ( 'NONE', #67, 1000.000000000000000 ) ;
#942 = CARTESIAN_POINT ( 'NONE',  ( 0.000000000000000000, 0.9200000000000000400, 0.7200000000000001954 ) ) ;
#943 = AXIS2_PLACEMENT_3D ( 'NONE', #631, #1118, #1199 ) ;
#944 = ORIENTED_EDGE ( 'NONE', *, *, #1017, .T. ) ;
#945 = LINE ( 'NONE', #252, #339 ) ;
#946 = DIRECTION ( 'NONE',  ( 1.000000000000000000, 0.000000000000000000, 2.710505431213761578E-16 ) ) ;
#947 = FILL_AREA_STYLE_COLOUR ( '', #354 ) ;
#948 = CYLINDRICAL_SURFACE ( 'NONE', #42, 0.07999999999999998779 ) ;
#949 = VERTEX_POINT ( 'NONE', #45 ) ;
#950 = DIRECTION ( 'NONE',  ( 0.000000000000000000, -1.000000000000000000, 0.000000000000000000 ) ) ;
#951 = CARTESIAN_POINT ( 'NONE',  ( -1.140000000000000124, 0.02666666666666666491, -0.7199999999999993072 ) ) ;
#952 = DIRECTION ( 'NONE',  ( -1.000000000000000000, 0.000000000000000000, 0.000000000000000000 ) ) ;
#953 = DIRECTION ( 'NONE',  ( 0.000000000000000000, -0.000000000000000000, 1.000000000000000000 ) ) ;
#954 = ORIENTED_EDGE ( 'NONE', *, *, #933, .T. ) ;
#955 = DIRECTION ( 'NONE',  ( 1.000000000000000000, -0.000000000000000000, -2.710505431213761578E-16 ) ) ;
#956 = CARTESIAN_POINT ( 'NONE',  ( -1.140000000000000124, 0.9200000000000000400, -0.7199999999999997513 ) ) ;
#957 = CIRCLE ( 'NONE', #1020, 0.07999999999999998779 ) ;
#958 = ORIENTED_EDGE ( 'NONE', *, *, #1275, .F. ) ;
#959 = CARTESIAN_POINT ( 'NONE',  ( 1.519999999999999796, 0.9200000000000000400, 0.000000000000000000 ) ) ;
#960 = VECTOR ( 'NONE', #814, 1000.000000000000000 ) ;
#961 = EDGE_CURVE ( 'NONE', #1131, #532, #848, .T. ) ;
#962 = COLOUR_RGB ( '',0.7921568627450980005, 0.8196078431372548767, 0.9333333333333333481 ) ;
#963 = PLANE ( 'NONE',  #1225 ) ;
#964 = DIRECTION ( 'NONE',  ( 0.000000000000000000, 0.000000000000000000, -1.000000000000000000 ) ) ;
#965 = PRESENTATION_STYLE_ASSIGNMENT (( #572 ) ) ;
#966 = CARTESIAN_POINT ( 'NONE',  ( -1.599999999999999867, 1.000000000000000000, -0.7199999999999997513 ) ) ;
#967 = CARTESIAN_POINT ( 'NONE',  ( -1.140000000000000346, 0.07999999999999998779, -0.7999999999999997113 ) ) ;
#968 =( NAMED_UNIT ( * ) PLANE_ANGLE_UNIT ( ) SI_UNIT ( $, .RADIAN. ) );
#969 = DIRECTION ( 'NONE',  ( -1.000000000000000000, -0.000000000000000000, -0.000000000000000000 ) ) ;
#970 = SPHERICAL_SURFACE ( 'NONE', #829, 0.08000000000000000167 ) ;
#971 = EDGE_CURVE ( 'NONE', #305, #1084, #381, .T. ) ;
#972 = EDGE_CURVE ( 'NONE', #1237, #1253, #1046, .T. ) ;
#973 = EDGE_CURVE ( 'NONE', #940, #823, #267, .T. ) ;
#974 = SURFACE_SIDE_STYLE ('',( #284 ) ) ;
#975 = CARTESIAN_POINT ( 'NONE',  ( 500000.0000000000582, 0.9200000000000000400, 0.7199999999566319975 ) ) ;
#976 = ORIENTED_EDGE ( 'NONE', *, *, #1204, .F. ) ;
#977 = AXIS2_PLACEMENT_3D ( 'NONE', #988, #304, #678 ) ;
#978 = DIRECTION ( 'NONE',  ( -0.000000000000000000, 1.000000000000000000, -0.000000000000000000 ) ) ;
#979 = CIRCLE ( 'NONE', #235, 0.07999999999999998779 ) ;
#980 = CARTESIAN_POINT ( 'NONE',  ( 1.519999999999999796, 0.08000000000000000167, -0.7199999999999997513 ) ) ;
#981 = AXIS2_PLACEMENT_3D ( 'NONE', #1085, #615, #985 ) ;
#982 = CARTESIAN_POINT ( 'NONE',  ( 0.000000000000000000, 0.000000000000000000, -0.7199999999999997513 ) ) ;
#983 = CARTESIAN_POINT ( 'NONE',  ( 500000.0000000000582, 0.9200000000000000400, 0.7733333332899652302 ) ) ;
#984 = EDGE_LOOP ( 'NONE', ( #1272, #597, #805 ) ) ;
#985 = DIRECTION ( 'NONE',  ( 0.000000000000000000, 0.000000000000000000, -1.000000000000000000 ) ) ;
#986 = CARTESIAN_POINT ( 'NONE',  ( 1.519999999999999796, 0.07999999999999998779, 0.7200000000000001954 ) ) ;
#987 = ORIENTED_EDGE ( 'NONE', *, *, #379, .T. ) ;
#988 = CARTESIAN_POINT ( 'NONE',  ( 1.139999999999999902, 0.07999999999999998779, 0.7200000000000001954 ) ) ;
#989 = ORIENTED_EDGE ( 'NONE', *, *, #652, .T. ) ;
#990 = ADVANCED_FACE ( 'NONE', ( #539 ), #1055, .T. ) ;
#991 = DIRECTION ( 'NONE',  ( 0.000000000000000000, -0.000000000000000000, -1.000000000000000000 ) ) ;
#992 = DIRECTION ( 'NONE',  ( 1.000000000000000000, 0.000000000000000000, 2.710505431213761578E-16 ) ) ;
#993 = ORIENTED_EDGE ( 'NONE', *, *, #416, .F. ) ;
#994 = DIRECTION ( 'NONE',  ( -1.000000000000000000, -0.000000000000000000, 8.673617379884037937E-17 ) ) ;
#995 = EDGE_LOOP ( 'NONE', ( #1155, #1078, #537, #449 ) ) ;
#996 = CIRCLE ( 'NONE', #643, 0.07999999999999998779 ) ;
#997 = DIRECTION ( 'NONE',  ( -0.000000000000000000, -0.000000000000000000, 1.000000000000000000 ) ) ;
#998 = SURFACE_STYLE_FILL_AREA ( #1095 ) ;
#999 = CIRCLE ( 'NONE', #977, 0.07999999999999998779 ) ;
#1000 = VERTEX_POINT ( 'NONE', #1049 ) ;
#1001 = AXIS2_PLACEMENT_3D ( 'NONE', #216, #800, #27 ) ;
#1002 = DIRECTION ( 'NONE',  ( 1.000000000000000000, 0.000000000000000000, 2.710505431213761578E-16 ) ) ;
#1003 = MECHANICAL_DESIGN_GEOMETRIC_PRESENTATION_REPRESENTATION (  '', ( #1081 ), #1208 ) ;
#1004 = ORIENTED_EDGE ( 'NONE', *, *, #738, .F. ) ;
#1005 = DIRECTION ( 'NONE',  ( -2.710505431213761578E-16, 0.000000000000000000, 1.000000000000000000 ) ) ;
#1006 = UNCERTAINTY_MEASURE_WITH_UNIT (LENGTH_MEASURE( 1.000000000000000082E-05 ), #930, 'distance_accuracy_value', 'NONE');
#1007 = EDGE_LOOP ( 'NONE', ( #816, #846, #851, #656 ) ) ;
#1008 = CARTESIAN_POINT ( 'NONE',  ( 500000.0000000000582, 0.02666666666666668573, 0.7199999999566315534 ) ) ;
#1009 = DIRECTION ( 'NONE',  ( 0.000000000000000000, 0.000000000000000000, 1.000000000000000000 ) ) ;
#1010 = EDGE_LOOP ( 'NONE', ( #162, #19, #1034, #601 ) ) ;
#1011 = CARTESIAN_POINT ( 'NONE',  ( 1.599999999999999867, 0.9200000000000000400, -0.7199999999999997513 ) ) ;
#1012 = ADVANCED_FACE ( 'NONE', ( #169 ), #636, .T. ) ;
#1013 = ORIENTED_EDGE ( 'NONE', *, *, #633, .F. ) ;
#1014 = CARTESIAN_POINT ( 'NONE',  ( 1.140000000020791049, 0.07999999999999998779, -0.7199999999999999734 ) ) ;
#1015 = EDGE_CURVE ( 'NONE', #226, #336, #570, .T. ) ;
#1016 = FILL_AREA_STYLE ('',( #409 ) ) ;
#1017 = EDGE_CURVE ( 'NONE', #1084, #949, #69, .T. ) ;
#1018 = ORIENTED_EDGE ( 'NONE', *, *, #414, .F. ) ;
#1019 = FACE_OUTER_BOUND ( 'NONE', #12, .T. ) ;
#1020 = AXIS2_PLACEMENT_3D ( 'NONE', #64, #455, #1249 ) ;
#1021 = ORIENTED_EDGE ( 'NONE', *, *, #1187, .F. ) ;
#1022 = AXIS2_PLACEMENT_3D ( 'NONE', #1058, #576, #171 ) ;
#1023 = FACE_OUTER_BOUND ( 'NONE', #626, .T. ) ;
#1024 = DIRECTION ( 'NONE',  ( -1.000000000000000000, 0.000000000000000000, 0.000000000000000000 ) ) ;
#1025 = VECTOR ( 'NONE', #732, 1000.000000000000000 ) ;
#1026 = ORIENTED_EDGE ( 'NONE', *, *, #378, .T. ) ;
#1027 = LINE ( 'NONE', #1032, #106 ) ;
#1028 = VERTEX_POINT ( 'NONE', #853 ) ;
#1029 = DIRECTION ( 'NONE',  ( 0.000000000000000000, -1.000000000000000000, 0.000000000000000000 ) ) ;
#1030 = ORIENTED_EDGE ( 'NONE', *, *, #1275, .T. ) ;
#1031 = EDGE_CURVE ( 'NONE', #89, #1000, #352, .T. ) ;
#1032 = CARTESIAN_POINT ( 'NONE',  ( -1.599999999999999867, 0.07999999999999998779, 0.8000000000000001554 ) ) ;
#1033 = EDGE_CURVE ( 'NONE', #1000, #1121, #1239, .T. ) ;
#1034 = ORIENTED_EDGE ( 'NONE', *, *, #701, .F. ) ;
#1035 = CARTESIAN_POINT ( 'NONE',  ( -1.599999999999999867, 1.000000000000000000, -0.7999999999999997113 ) ) ;
#1036 = EDGE_LOOP ( 'NONE', ( #346, #719, #632 ) ) ;
#1037 = CARTESIAN_POINT ( 'NONE',  ( 1.519999999999999796, 0.9200000000000000400, -0.7199999999999997513 ) ) ;
#1038 = ORIENTED_EDGE ( 'NONE', *, *, #11, .T. ) ;
#1039 = DIRECTION ( 'NONE',  ( -1.000000000000000000, -0.000000000000000000, 8.673617379884037937E-17 ) ) ;
#1040 = AXIS2_PLACEMENT_3D ( 'NONE', #232, #220, #35 ) ;
#1041 = DIRECTION ( 'NONE',  ( 1.000000000000000000, 0.000000000000000000, 0.000000000000000000 ) ) ;
#1042 = EDGE_LOOP ( 'NONE', ( #644, #317, #777, #82 ) ) ;
#1043 = AXIS2_PLACEMENT_3D ( 'NONE', #746, #173, #266 ) ;
#1044 = AXIS2_PLACEMENT_3D ( 'NONE', #103, #997, #392 ) ;
#1045 = CYLINDRICAL_SURFACE ( 'NONE', #457, 0.07999999999999998779 ) ;
#1046 = CIRCLE ( 'NONE', #237, 0.05333333333333329512 ) ;
#1047 = ORIENTED_EDGE ( 'NONE', *, *, #1108, .T. ) ;
#1048 = LINE ( 'NONE', #659, #479 ) ;
#1049 = CARTESIAN_POINT ( 'NONE',  ( 1.599999999999999867, 0.07999999999999998779, -0.7199999999999997513 ) ) ;
#1050 = LINE ( 'NONE', #71, #249 ) ;
#1051 = PLANE ( 'NONE',  #360 ) ;
#1052 = EDGE_LOOP ( 'NONE', ( #484, #263, #551 ) ) ;
#1053 = ADVANCED_FACE ( 'NONE', ( #357 ), #747, .F. ) ;
#1054 = CARTESIAN_POINT ( 'NONE',  ( 1.519999999999999796, 0.07999999999999998779, 0.7200000000000001954 ) ) ;
#1055 = CYLINDRICAL_SURFACE ( 'NONE', #1251, 0.07999999999999998779 ) ;
#1056 = CARTESIAN_POINT ( 'NONE',  ( -1.599999999999999867, 1.000000000000000000, 0.7200000000000001954 ) ) ;
#1057 = ADVANCED_FACE ( 'NONE', ( #401 ), #784, .F. ) ;
#1058 = CARTESIAN_POINT ( 'NONE',  ( -1.519999999999999796, 0.9200000000000000400, -0.7199999999999997513 ) ) ;
#1059 = ORIENTED_EDGE ( 'NONE', *, *, #14, .T. ) ;
#1060 = CYLINDRICAL_SURFACE ( 'NONE', #671, 0.07999999999999998779 ) ;
#1061 = DIRECTION ( 'NONE',  ( 0.000000000000000000, 0.000000000000000000, -1.000000000000000000 ) ) ;
#1062 = SURFACE_STYLE_FILL_AREA ( #57 ) ;
#1063 = CIRCLE ( 'NONE', #499, 0.05333333333333329512 ) ;
#1064 = DIRECTION ( 'NONE',  ( 0.000000000000000000, 0.000000000000000000, 1.000000000000000000 ) ) ;
#1065 = VECTOR ( 'NONE', #1029, 1000.000000000000000 ) ;
#1066 = DIRECTION ( 'NONE',  ( 0.000000000000000000, 0.000000000000000000, 1.000000000000000000 ) ) ;
#1067 = DIRECTION ( 'NONE',  ( -2.710505431213761578E-16, 0.000000000000000000, 1.000000000000000000 ) ) ;
#1068 = EDGE_CURVE ( 'NONE', #305, #619, #893, .T. ) ;
#1069 = CARTESIAN_POINT ( 'NONE',  ( -1.140000000000000124, 0.9199999999999998179, -0.7733333333333329840 ) ) ;
#1070 = EDGE_CURVE ( 'NONE', #446, #102, #587, .T. ) ;
#1071 = ADVANCED_FACE ( 'NONE', ( #488 ), #598, .T. ) ;
#1072 = LINE ( 'NONE', #477, #1268 ) ;
#1073 = DIRECTION ( 'NONE',  ( 0.000000000000000000, -0.000000000000000000, -1.000000000000000000 ) ) ;
#1074 = CARTESIAN_POINT ( 'NONE',  ( 1.519999999999999796, 0.000000000000000000, 0.7200000000000001954 ) ) ;
#1075 = CARTESIAN_POINT ( 'NONE',  ( 1.599999999999999867, 1.000000000000000000, -0.7999999999999997113 ) ) ;
#1076 = VECTOR ( 'NONE', #268, 1000.000000000000000 ) ;
#1077 = LINE ( 'NONE', #595, #725 ) ;
#1078 = ORIENTED_EDGE ( 'NONE', *, *, #96, .T. ) ;
#1079 = CIRCLE ( 'NONE', #131, 0.05333333333333329512 ) ;
#1080 = LINE ( 'NONE', #192, #191 ) ;
#1081 = STYLED_ITEM ( 'NONE', ( #496 ), #901 ) ;
#1082 = DIRECTION ( 'NONE',  ( 0.000000000000000000, 1.000000000000000000, 0.000000000000000000 ) ) ;
#1083 = PLANE ( 'NONE',  #276 ) ;
#1084 = VERTEX_POINT ( 'NONE', #118 ) ;
#1085 = CARTESIAN_POINT ( 'NONE',  ( 1.599999999999999867, 0.07999999999999998779, 0.7200000000000001954 ) ) ;
#1086 = CARTESIAN_POINT ( 'NONE',  ( -1.519999999999999796, 0.9200000000000000400, -0.7199999999999997513 ) ) ;
#1087 = PRODUCT_DEFINITION_SHAPE ( 'NONE', 'NONE',  #367 ) ;
#1088 =( LENGTH_UNIT ( ) NAMED_UNIT ( * ) SI_UNIT ( .MILLI., .METRE. ) );
#1089 = CARTESIAN_POINT ( 'NONE',  ( 0.000000000000000000, 0.9200000000000000400, -0.7199999999999997513 ) ) ;
#1090 = FACE_OUTER_BOUND ( 'NONE', #221, .T. ) ;
#1091 = EDGE_CURVE ( 'NONE', #497, #592, #505, .T. ) ;
#1092 = ORIENTED_EDGE ( 'NONE', *, *, #473, .F. ) ;
#1093 = CLOSED_SHELL ( 'NONE', ( #836, #684, #1053, #202, #454, #648, #552, #344, #1151, #94, #1071, #990, #288, #52, #273, #153, #871, #858 ) ) ;
#1094 = FACE_OUTER_BOUND ( 'NONE', #906, .T. ) ;
#1095 = FILL_AREA_STYLE ('',( #204 ) ) ;
#1096 = ORIENTED_EDGE ( 'NONE', *, *, #1279, .T. ) ;
#1097 = DIRECTION ( 'NONE',  ( 0.000000000000000000, 0.000000000000000000, -1.000000000000000000 ) ) ;
#1098 = CARTESIAN_POINT ( 'NONE',  ( -1.140000000000000124, 0.07999999999999998779, -0.7199999999999997513 ) ) ;
#1099 = ORIENTED_EDGE ( 'NONE', *, *, #1150, .T. ) ;
#1100 = AXIS2_PLACEMENT_3D ( 'NONE', #1037, #620, #150 ) ;
#1101 = DIRECTION ( 'NONE',  ( 1.000000000000000000, 0.000000000000000000, 0.000000000000000000 ) ) ;
#1102 = CIRCLE ( 'NONE', #1265, 0.07999999999999998779 ) ;
#1103 = ORIENTED_EDGE ( 'NONE', *, *, #1091, .T. ) ;
#1104 = FACE_OUTER_BOUND ( 'NONE', #389, .T. ) ;
#1105 = CIRCLE ( 'NONE', #1044, 0.07999999999999998779 ) ;
#1106 = CARTESIAN_POINT ( 'NONE',  ( 1.140000000020791049, 0.02666666666666668573, 0.7199999999999995293 ) ) ;
#1107 = ORIENTED_EDGE ( 'NONE', *, *, #247, .T. ) ;
#1108 = EDGE_CURVE ( 'NONE', #48, #811, #6, .T. ) ;
#1109 = EDGE_CURVE ( 'NONE', #619, #1084, #728, .T. ) ;
#1110 = CARTESIAN_POINT ( 'NONE',  ( 1.519999999999999796, 0.9200000000000000400, 0.7200000000000001954 ) ) ;
#1111 = ORIENTED_EDGE ( 'NONE', *, *, #250, .F. ) ;
#1112 = EDGE_CURVE ( 'NONE', #1237, #223, #1177, .T. ) ;
#1113 = LINE ( 'NONE', #222, #318 ) ;
#1114 = ORIENTED_EDGE ( 'NONE', *, *, #915, .T. ) ;
#1115 = CARTESIAN_POINT ( 'NONE',  ( -1.519999999999999796, 0.000000000000000000, 0.7200000000000001954 ) ) ;
#1116 = ORIENTED_EDGE ( 'NONE', *, *, #419, .T. ) ;
#1117 = DIRECTION ( 'NONE',  ( 0.000000000000000000, 0.000000000000000000, -1.000000000000000000 ) ) ;
#1118 = DIRECTION ( 'NONE',  ( 0.000000000000000000, 0.000000000000000000, -1.000000000000000000 ) ) ;
#1119 = ORIENTED_EDGE ( 'NONE', *, *, #1031, .T. ) ;
#1120 = CARTESIAN_POINT ( 'NONE',  ( -1.519999999999999796, 0.07999999999999998779, 0.7200000000000001954 ) ) ;
#1121 = VERTEX_POINT ( 'NONE', #803 ) ;
#1122 = VECTOR ( 'NONE', #1188, 1000.000000000000000 ) ;
#1123 = DIRECTION ( 'NONE',  ( 0.000000000000000000, 0.000000000000000000, -1.000000000000000000 ) ) ;
#1124 = AXIS2_PLACEMENT_3D ( 'NONE', #362, #242, #1137 ) ;
#1125 = ADVANCED_FACE ( 'NONE', ( #1094 ), #1206, .T. ) ;
#1126 = CIRCLE ( 'NONE', #133, 0.07999999999999998779 ) ;
#1127 = AXIS2_PLACEMENT_3D ( 'NONE', #1110, #306, #77 ) ;
#1128 = ORIENTED_EDGE ( 'NONE', *, *, #285, .T. ) ;
#1129 = CIRCLE ( 'NONE', #217, 0.07999999999999998779 ) ;
#1130 = SPHERICAL_SURFACE ( 'NONE', #1040, 0.08000000000000000167 ) ;
#1131 = VERTEX_POINT ( 'NONE', #682 ) ;
#1132 = CARTESIAN_POINT ( 'NONE',  ( 1.140000000000000346, 0.9200000000000000400, -0.7999999999999997113 ) ) ;
#1133 = CARTESIAN_POINT ( 'NONE',  ( 1.519999999999999796, 0.9200000000000000400, -0.7199999999999997513 ) ) ;
#1134 = FACE_OUTER_BOUND ( 'NONE', #407, .T. ) ;
#1135 = VERTEX_POINT ( 'NONE', #313 ) ;
#1136 = ORIENTED_EDGE ( 'NONE', *, *, #458, .F. ) ;
#1137 = DIRECTION ( 'NONE',  ( 0.000000000000000000, 0.000000000000000000, -1.000000000000000000 ) ) ;
#1138 = DIRECTION ( 'NONE',  ( 1.000000000000000000, -0.000000000000000000, -2.710505431213761578E-16 ) ) ;
#1139 = FACE_OUTER_BOUND ( 'NONE', #124, .T. ) ;
#1140 = DIRECTION ( 'NONE',  ( 0.000000000000000000, -1.000000000000000000, 0.000000000000000000 ) ) ;
#1141 = ORIENTED_EDGE ( 'NONE', *, *, #887, .F. ) ;
#1142 = CARTESIAN_POINT ( 'NONE',  ( 1.140000000020791049, 0.07999999999999998779, -0.7733333333333332060 ) ) ;
#1143 =( NAMED_UNIT ( * ) SI_UNIT ( $, .STERADIAN. ) SOLID_ANGLE_UNIT ( ) );
#1144 = AXIS2_PLACEMENT_3D ( 'NONE', #452, #754, #538 ) ;
#1145 = DIRECTION ( 'NONE',  ( 0.000000000000000000, 0.000000000000000000, 1.000000000000000000 ) ) ;
#1146 = VECTOR ( 'NONE', #253, 1000.000000000000000 ) ;
#1147 = CARTESIAN_POINT ( 'NONE',  ( 1.519999999999999796, 1.000000000000000000, 0.7200000000000001954 ) ) ;
#1148 = EDGE_LOOP ( 'NONE', ( #1107, #254, #919, #478 ) ) ;
#1149 = CARTESIAN_POINT ( 'NONE',  ( -1.519999999999999796, 1.000000000000000000, -0.7999999999999997113 ) ) ;
#1150 = EDGE_CURVE ( 'NONE', #89, #532, #1105, .T. ) ;
#1151 = ADVANCED_FACE ( 'NONE', ( #111 ), #798, .T. ) ;
#1152 = DIRECTION ( 'NONE',  ( 0.000000000000000000, 0.000000000000000000, -1.000000000000000000 ) ) ;
#1153 = LINE ( 'NONE', #183, #932 ) ;
#1154 = LINE ( 'NONE', #966, #1076 ) ;
#1155 = ORIENTED_EDGE ( 'NONE', *, *, #289, .T. ) ;
#1156 = CARTESIAN_POINT ( 'NONE',  ( 1.140000000020791049, 0.07999999999999998779, -0.7733333333333332060 ) ) ;
#1157 = DIRECTION ( 'NONE',  ( 0.000000000000000000, -0.000000000000000000, 1.000000000000000000 ) ) ;
#1158 = EDGE_LOOP ( 'NONE', ( #363, #1194, #431 ) ) ;
#1159 = CARTESIAN_POINT ( 'NONE',  ( -1.519999999999999796, 0.000000000000000000, 0.000000000000000000 ) ) ;
#1160 = DIRECTION ( 'NONE',  ( 1.000000000000000000, 0.000000000000000000, 0.000000000000000000 ) ) ;
#1161 = ORIENTED_EDGE ( 'NONE', *, *, #114, .T. ) ;
#1162 = ADVANCED_FACE ( 'NONE', ( #197 ), #17, .T. ) ;
#1163 = AXIS2_PLACEMENT_3D ( 'NONE', #310, #297, #607 ) ;
#1164 = CARTESIAN_POINT ( 'NONE',  ( -1.140000000000000346, 1.000000000000000000, -0.7999999999999997113 ) ) ;
#1165 = EDGE_CURVE ( 'NONE', #592, #823, #1260, .T. ) ;
#1166 = CIRCLE ( 'NONE', #1144, 0.07999999999999998779 ) ;
#1167 = AXIS2_PLACEMENT_3D ( 'NONE', #81, #1157, #271 ) ;
#1168 = CARTESIAN_POINT ( 'NONE',  ( -1.139999999999999902, 0.9200000000000000400, 0.8000000000000001554 ) ) ;
#1169 = VECTOR ( 'NONE', #931, 1000.000000000000000 ) ;
#1170 = FILL_AREA_STYLE_COLOUR ( '', #540 ) ;
#1171 = DIRECTION ( 'NONE',  ( 1.000000000000000000, -0.000000000000000000, -0.000000000000000000 ) ) ;
#1172 = DIRECTION ( 'NONE',  ( 1.000000000000000000, -0.000000000000000000, -0.000000000000000000 ) ) ;
#1173 = DIRECTION ( 'NONE',  ( -8.673617379884036705E-17, 0.000000000000000000, -1.000000000000000000 ) ) ;
#1174 = CLOSED_SHELL ( 'NONE', ( #557, #1057, #872, #740, #245, #839, #179, #1125, #188, #1228, #1162, #1226, #1261, #1012, #612, #873, #472, #724 ) ) ;
#1175 = FACE_OUTER_BOUND ( 'NONE', #293, .T. ) ;
#1176 = ORIENTED_EDGE ( 'NONE', *, *, #738, .T. ) ;
#1177 = LINE ( 'NONE', #693, #342 ) ;
#1178 = DIRECTION ( 'NONE',  ( -1.000000000000000000, 0.000000000000000000, 2.710505431213761578E-16 ) ) ;
#1179 = AXIS2_PLACEMENT_3D ( 'NONE', #668, #1145, #952 ) ;
#1180 = AXIS2_PLACEMENT_3D ( 'NONE', #1243, #855, #1257 ) ;
#1181 = CARTESIAN_POINT ( 'NONE',  ( -1.139999999999999902, 0.07999999999999998779, 0.8000000000000001554 ) ) ;
#1182 = ORIENTED_EDGE ( 'NONE', *, *, #574, .T. ) ;
#1183 = EDGE_CURVE ( 'NONE', #506, #464, #1080, .T. ) ;
#1184 = DIRECTION ( 'NONE',  ( 0.000000000000000000, 0.000000000000000000, -1.000000000000000000 ) ) ;
#1185 = DIRECTION ( 'NONE',  ( 1.000000000000000000, 0.000000000000000000, -8.673617379884036705E-17 ) ) ;
#1186 = VERTEX_POINT ( 'NONE', #888 ) ;
#1187 = EDGE_CURVE ( 'NONE', #530, #226, #5, .T. ) ;
#1188 = DIRECTION ( 'NONE',  ( -1.000000000000000000, -0.000000000000000000, 8.673617379884037937E-17 ) ) ;
#1189 = VERTEX_POINT ( 'NONE', #349 ) ;
#1190 = DIRECTION ( 'NONE',  ( 0.000000000000000000, -1.000000000000000000, 0.000000000000000000 ) ) ;
#1191 = SURFACE_SIDE_STYLE ('',( #998 ) ) ;
#1192 = EDGE_LOOP ( 'NONE', ( #876, #424, #1096, #1030 ) ) ;
#1193 = DIRECTION ( 'NONE',  ( 1.000000000000000000, 0.000000000000000000, -8.673617379884036705E-17 ) ) ;
#1194 = ORIENTED_EDGE ( 'NONE', *, *, #287, .T. ) ;
#1195 = DIRECTION ( 'NONE',  ( 1.000000000000000000, 0.000000000000000000, 2.710505431213761578E-16 ) ) ;
#1196 = ORIENTED_EDGE ( 'NONE', *, *, #937, .T. ) ;
#1197 = CARTESIAN_POINT ( 'NONE',  ( 0.000000000000000000, 0.000000000000000000, 0.000000000000000000 ) ) ;
#1198 = EDGE_CURVE ( 'NONE', #1121, #446, #312, .T. ) ;
#1199 = DIRECTION ( 'NONE',  ( -1.000000000000000000, 0.000000000000000000, 0.000000000000000000 ) ) ;
#1200 = EDGE_CURVE ( 'NONE', #446, #89, #90, .T. ) ;
#1201 = EDGE_LOOP ( 'NONE', ( #629, #412, #437, #790, #922, #440, #467, #434 ) ) ;
#1202 = AXIS2_PLACEMENT_3D ( 'NONE', #527, #918, #669 ) ;
#1203 = EDGE_CURVE ( 'NONE', #692, #700, #386, .T. ) ;
#1204 = EDGE_CURVE ( 'NONE', #619, #739, #907, .T. ) ;
#1205 = LINE ( 'NONE', #24, #863 ) ;
#1206 = CYLINDRICAL_SURFACE ( 'NONE', #769, 0.07999999999999998779 ) ;
#1207 = ORIENTED_EDGE ( 'NONE', *, *, #368, .F. ) ;
#1208 =( GEOMETRIC_REPRESENTATION_CONTEXT ( 3 ) GLOBAL_UNCERTAINTY_ASSIGNED_CONTEXT ( ( #18 ) ) GLOBAL_UNIT_ASSIGNED_CONTEXT ( ( #603, #792, #1143 ) ) REPRESENTATION_CONTEXT ( 'NONE', 'WORKASPACE' ) );
#1209 = DIRECTION ( 'NONE',  ( 0.000000000000000000, -0.000000000000000000, 1.000000000000000000 ) ) ;
#1210 = DIRECTION ( 'NONE',  ( -8.673617379884037937E-17, 0.000000000000000000, -1.000000000000000000 ) ) ;
#1211 = EDGE_LOOP ( 'NONE', ( #664, #763, #9, #1182, #528, #325, #29, #895 ) ) ;
#1212 = VERTEX_POINT ( 'NONE', #697 ) ;
#1213 = DIRECTION ( 'NONE',  ( 0.000000000000000000, 1.000000000000000000, 0.000000000000000000 ) ) ;
#1214 = DIRECTION ( 'NONE',  ( -0.000000000000000000, -1.000000000000000000, -0.000000000000000000 ) ) ;
#1215 = ORIENTED_EDGE ( 'NONE', *, *, #961, .F. ) ;
#1216 = DIRECTION ( 'NONE',  ( 0.000000000000000000, -1.000000000000000000, 0.000000000000000000 ) ) ;
#1217 = ORIENTED_EDGE ( 'NONE', *, *, #1033, .T. ) ;
#1218 = FACE_OUTER_BOUND ( 'NONE', #444, .T. ) ;
#1219 = CARTESIAN_POINT ( 'NONE',  ( 1.519999999999999796, 0.9200000000000000400, 0.7200000000000001954 ) ) ;
#1220 = ORIENTED_EDGE ( 'NONE', *, *, #971, .T. ) ;
#1221 = CARTESIAN_POINT ( 'NONE',  ( -1.519999999999999796, 0.07999999999999998779, 0.7200000000000001954 ) ) ;
#1222 =( GEOMETRIC_REPRESENTATION_CONTEXT ( 3 ) GLOBAL_UNCERTAINTY_ASSIGNED_CONTEXT ( ( #1006 ) ) GLOBAL_UNIT_ASSIGNED_CONTEXT ( ( #930, #139, #425 ) ) REPRESENTATION_CONTEXT ( 'NONE', 'WORKASPACE' ) );
#1223 = ORIENTED_EDGE ( 'NONE', *, *, #418, .T. ) ;
#1224 = DIRECTION ( 'NONE',  ( 1.000000000000000000, 0.000000000000000000, -0.000000000000000000 ) ) ;
#1225 = AXIS2_PLACEMENT_3D ( 'NONE', #270, #1254, #842 ) ;
#1226 = ADVANCED_FACE ( 'NONE', ( #396 ), #481, .T. ) ;
#1227 = CARTESIAN_POINT ( 'NONE',  ( 1.599999999999999867, 1.000000000000000000, -0.7199999999999997513 ) ) ;
#1228 = ADVANCED_FACE ( 'NONE', ( #928 ), #809, .T. ) ;
#1229 = CIRCLE ( 'NONE', #112, 0.07999999999999998779 ) ;
#1230 = VECTOR ( 'NONE', #1041, 1000.000000000000000 ) ;
#1231 = ORIENTED_EDGE ( 'NONE', *, *, #1244, .T. ) ;
#1232 = CARTESIAN_POINT ( 'NONE',  ( 1.139999999999999902, 0.07999999999999998779, 0.8000000000000001554 ) ) ;
#1233 = ORIENTED_EDGE ( 'NONE', *, *, #187, .T. ) ;
#1234 = DIRECTION ( 'NONE',  ( -1.000000000000000000, -0.000000000000000000, 8.673617379884037937E-17 ) ) ;
#1235 = DIRECTION ( 'NONE',  ( 0.000000000000000000, 0.000000000000000000, -1.000000000000000000 ) ) ;
#1236 = DIRECTION ( 'NONE',  ( 0.000000000000000000, 0.000000000000000000, -1.000000000000000000 ) ) ;
#1237 = VERTEX_POINT ( 'NONE', #733 ) ;
#1238 = LINE ( 'NONE', #1142, #892 ) ;
#1239 = LINE ( 'NONE', #938, #480 ) ;
#1240 = EDGE_CURVE ( 'NONE', #446, #427, #1129, .T. ) ;
#1241 = CARTESIAN_POINT ( 'NONE',  ( 1.519999999999999796, 1.000000000000000000, 0.8000000000000001554 ) ) ;
#1242 = PRESENTATION_LAYER_ASSIGNMENT (  '', '', ( #516 ) ) ;
#1243 = CARTESIAN_POINT ( 'NONE',  ( 1.140000000000000346, 1.000000000000000000, -0.7999999999999997113 ) ) ;
#1244 = EDGE_CURVE ( 'NONE', #427, #469, #335, .T. ) ;
#1245 = ADVANCED_FACE ( 'NONE', ( #517 ), #706, .F. ) ;
#1246 = ORIENTED_EDGE ( 'NONE', *, *, #971, .F. ) ;
#1247 = DIRECTION ( 'NONE',  ( -0.000000000000000000, 1.000000000000000000, -0.000000000000000000 ) ) ;
#1248 = CARTESIAN_POINT ( 'NONE',  ( 1.599999999999999867, 1.000000000000000000, -0.7199999999999997513 ) ) ;
#1249 = DIRECTION ( 'NONE',  ( 0.000000000000000000, 0.000000000000000000, 1.000000000000000000 ) ) ;
#1250 = AXIS2_PLACEMENT_3D ( 'NONE', #1075, #388, #471 ) ;
#1251 = AXIS2_PLACEMENT_3D ( 'NONE', #448, #157, #964 ) ;
#1252 = PLANE ( 'NONE',  #476 ) ;
#1253 = VERTEX_POINT ( 'NONE', #1106 ) ;
#1254 = DIRECTION ( 'NONE',  ( 0.000000000000000000, 0.000000000000000000, -1.000000000000000000 ) ) ;
#1255 = DIRECTION ( 'NONE',  ( -1.000000000000000000, 0.000000000000000000, 0.000000000000000000 ) ) ;
#1256 = ORIENTED_EDGE ( 'NONE', *, *, #1150, .F. ) ;
#1257 = DIRECTION ( 'NONE',  ( -2.710505431213761578E-16, 0.000000000000000000, 1.000000000000000000 ) ) ;
#1258 = CARTESIAN_POINT ( 'NONE',  ( 1.140000000020791049, 0.02666666666666666491, 0.7199999998211066288 ) ) ;
#1259 = ADVANCED_FACE ( 'NONE', ( #1134 ), #523, .T. ) ;
#1260 = LINE ( 'NONE', #212, #753 ) ;
#1261 = ADVANCED_FACE ( 'NONE', ( #723 ), #718, .T. ) ;
#1262 = EDGE_CURVE ( 'NONE', #102, #621, #28, .T. ) ;
#1263 = FACE_OUTER_BOUND ( 'NONE', #658, .T. ) ;
#1264 = DIRECTION ( 'NONE',  ( 0.000000000000000000, -1.000000000000000000, 0.000000000000000000 ) ) ;
#1265 = AXIS2_PLACEMENT_3D ( 'NONE', #83, #475, #580 ) ;
#1266 = CARTESIAN_POINT ( 'NONE',  ( 1.140000000000000346, 1.000000000000000000, -0.7999999999999997113 ) ) ;
#1267 = CARTESIAN_POINT ( 'NONE',  ( -1.140000000000000124, 0.02666666666666668573, 0.7199999999999997513 ) ) ;
#1268 = VECTOR ( 'NONE', #185, 1000.000000000000000 ) ;
#1269 = PLANE ( 'NONE',  #1250 ) ;
#1270 = AXIS2_PLACEMENT_3D ( 'NONE', #594, #491, #884 ) ;
#1271 = CARTESIAN_POINT ( 'NONE',  ( 1.140000000000000346, 0.07999999999999998779, -0.7999999999999997113 ) ) ;
#1272 = ORIENTED_EDGE ( 'NONE', *, *, #1279, .F. ) ;
#1273 = DIRECTION ( 'NONE',  ( -0.000000000000000000, -0.000000000000000000, -1.000000000000000000 ) ) ;
#1274 = CARTESIAN_POINT ( 'NONE',  ( -1.140000000000000346, 1.000000000000000000, -0.7999999999999997113 ) ) ;
#1275 = EDGE_CURVE ( 'NONE', #469, #100, #905, .T. ) ;
#1276 = DIRECTION ( 'NONE',  ( 0.000000000000000000, 0.000000000000000000, -1.000000000000000000 ) ) ;
#1277 = ORIENTED_EDGE ( 'NONE', *, *, #775, .F. ) ;
#1278 = DIRECTION ( 'NONE',  ( 0.000000000000000000, 0.000000000000000000, 1.000000000000000000 ) ) ;
#1279 = EDGE_CURVE ( 'NONE', #497, #469, #812, .T. ) ;
#1280 = CYLINDRICAL_SURFACE ( 'NONE', #786, 0.07999999999999998779 ) ;
ENDSEC;
END-ISO-10303-21;
